<?xml version="1.0" encoding="UTF-8"?>
<svg id="Layer_2" data-name="Layer 2" xmlns="http://www.w3.org/2000/svg" viewBox="0 0 2015.01 1295.93">
  <defs>
    <style>
      .cls-1 {
        fill: #f1a34f;
      }

      .cls-2 {
        fill: #e8945b;
      }

      .cls-3 {
        fill: #fff;
      }

      .cls-4 {
        fill: #ffb973;
      }

      .cls-5 {
        fill: #ffb27d;
      }

      .cls-6 {
        fill: #699dee;
      }

      .cls-7 {
        fill: #9cb288;
      }

      .cls-8 {
        fill: #a8d29f;
      }

      .cls-9 {
        fill: #a53d38;
      }

      .cls-10 {
        fill: #d86713;
      }

      .cls-11 {
        fill: #61a489;
      }

      .cls-12 {
        fill: #283250;
      }

      .cls-13 {
        fill: #35488b;
      }

      .cls-14 {
        fill: #3b76ca;
      }

      .cls-15 {
        fill: #82b378;
      }
    </style>
  </defs>
  <g id="Layer_1-2" data-name="Layer 1">
    <g>
      <g>
        <g>
          <rect class="cls-9" x="1363.33" y="878.26" width="33.46" height="153.44" transform="translate(2760.12 1909.96) rotate(180)"/>
          <rect class="cls-13" x="1196.19" y="831.51" width="33.46" height="200.33" transform="translate(2425.83 1863.34) rotate(180)"/>
          <rect class="cls-13" x="1329.87" y="878.34" width="33.46" height="153.44" transform="translate(2693.21 1910.12) rotate(180)"/>
          <rect class="cls-1" x="1229.65" y="857.22" width="33.46" height="174.49" transform="translate(2492.75 1888.92) rotate(180)"/>
          <rect class="cls-1" x="1463.59" y="845.21" width="33.46" height="186.56" transform="translate(2960.64 1876.98) rotate(180)"/>
          <rect class="cls-1" x="1396.68" y="845.15" width="33.46" height="186.56" transform="translate(2826.81 1876.85) rotate(180)"/>
          <rect class="cls-9" x="1430.13" y="898.9" width="33.46" height="132.8" transform="translate(2893.72 1930.6) rotate(180)"/>
          <rect class="cls-9" x="1497.05" y="857.22" width="33.46" height="174.49" transform="translate(3027.55 1888.92) rotate(180)"/>
          <rect class="cls-9" x="1162.73" y="878.39" width="33.46" height="153.44" transform="translate(2358.92 1910.23) rotate(180)"/>
          <rect class="cls-1" x="1296.42" y="913.37" width="33.46" height="118.41" transform="translate(2626.29 1945.15) rotate(180)"/>
          <rect class="cls-9" x="1262.96" y="833.7" width="33.46" height="198.01" transform="translate(2559.38 1865.4) rotate(180)"/>
          <polygon class="cls-1" points="1082.54 1020.92 1114.4 1031.42 1166.36 865.29 1134.5 854.79 1082.54 1020.92"/>
          <rect class="cls-9" x="1200.19" y="997.51" width="25.3" height="29.24" transform="translate(2425.68 2024.26) rotate(180)"/>
          <rect class="cls-1" x="1267.85" y="844.07" width="25.53" height="6.96" transform="translate(2561.23 1695.11) rotate(180)"/>
          <rect class="cls-1" x="1267.85" y="855.79" width="25.53" height="6.96" transform="translate(2561.23 1718.55) rotate(180)"/>
          <rect class="cls-3" x="1232.57" y="873.78" width="27.97" height="3.48" transform="translate(2493.1 1751.05) rotate(180)"/>
          <path class="cls-13" d="m1513.87,895.64h0c6.83,0,12.36-5.53,12.36-12.36v-18.97h-24.72v18.97c0,6.83,5.53,12.36,12.36,12.36Z"/>
          <rect class="cls-13" x="1399.85" y="850.38" width="28.32" height="3.83" transform="translate(2828.02 1704.59) rotate(180)"/>
          <rect class="cls-13" x="1432.97" y="1022.21" width="28.16" height="6.03" transform="translate(2894.09 2050.45) rotate(180)"/>
          <rect class="cls-3" x="1432.97" y="1014.16" width="28.16" height="6.03" transform="translate(2894.09 2034.36) rotate(180)"/>
          <path class="cls-3" d="m1447.05,1008.75h0c6.73,0,12.19-5.46,12.19-12.19h0c0-6.73-5.46-12.19-12.19-12.19h0c-6.73,0-12.19,5.46-12.19,12.19h0c0,6.73,5.46,12.19,12.19,12.19Z"/>
          <rect class="cls-9" x="1468.04" y="903.1" width="24.6" height="58.72" transform="translate(2960.67 1864.91) rotate(180)"/>
          <rect class="cls-3" x="1367.2" y="890.53" width="26.3" height="6.03" transform="translate(2760.71 1787.1) rotate(180)"/>
          <rect class="cls-3" x="1366.91" y="921.01" width="26.3" height="6.03" transform="translate(2760.12 1848.06) rotate(180)"/>
          <path class="cls-3" d="m1170.92,903.22h18.42c2.52,0,4.56-2.04,4.56-4.56h0c0-2.52-2.04-4.56-4.56-4.56h-18.42c-2.52,0-4.56,2.04-4.56,4.56h0c0,2.52,2.04,4.56,4.56,4.56Z"/>
        </g>
        <g>
          <rect class="cls-9" x="27.2" y="691.76" width="23.04" height="7.51"/>
          <rect class="cls-9" x="27.2" y="703.98" width="23.04" height="7.51"/>
        </g>
        <g>
          <rect class="cls-9" x="1839.12" y="915.62" width="26.46" height="138.01" transform="translate(3704.71 1969.25) rotate(180)"/>
          <rect class="cls-9" x="1667.48" y="915.62" width="26.46" height="138.01" transform="translate(3361.42 1969.25) rotate(180)"/>
          <rect class="cls-1" x="1812.66" y="897.02" width="26.46" height="156.61" transform="translate(3651.78 1950.65) rotate(180)"/>
          <rect class="cls-13" x="1786.2" y="932.27" width="26.46" height="121.37" transform="translate(3598.86 1985.9) rotate(180)"/>
          <rect class="cls-1" x="1641.02" y="906.07" width="26.46" height="147.56" transform="translate(3308.49 1959.71) rotate(180)"/>
          <rect class="cls-9" x="1613.69" y="897.02" width="27.33" height="156.61" transform="translate(3254.7 1950.65) rotate(180)"/>
          <rect class="cls-9" x="1759.73" y="915.62" width="26.46" height="138.01" transform="translate(3545.93 1969.25) rotate(180)"/>
          <path class="cls-1" d="m1694.04,1045.33l25.2,8.31,40.43-129.29c.37-1.17-.28-2.42-1.44-2.81l-20.92-6.9c-1.19-.39-2.48.27-2.85,1.47l-40.41,129.22Z"/>
          <rect class="cls-1" x="1841.28" y="926.64" width="22.15" height="6.12" transform="translate(3704.71 1859.39) rotate(180)"/>
          <rect class="cls-1" x="1841.28" y="934.84" width="22.15" height="2.57" transform="translate(3704.71 1872.24) rotate(180)"/>
          <rect class="cls-1" x="1761.89" y="1038.25" width="22.15" height="6.12" transform="translate(3545.93 2082.62) rotate(180)"/>
          <rect class="cls-1" x="1761.89" y="1046.45" width="22.15" height="2.57" transform="translate(3545.93 2095.47) rotate(180)"/>
          <rect class="cls-1" x="1670.99" y="921.5" width="19.09" height="78.57" transform="translate(3361.08 1921.56) rotate(180)"/>
          <rect class="cls-1" x="1617.14" y="906.07" width="21.42" height="2.57" transform="translate(3255.7 1814.72) rotate(180)"/>
          <rect class="cls-1" x="1617.14" y="910.85" width="21.42" height="2.57" transform="translate(3255.7 1824.27) rotate(180)"/>
          <rect class="cls-1" x="1617.14" y="915.62" width="21.42" height="2.57" transform="translate(3255.7 1833.81) rotate(180)"/>
          <rect class="cls-3" x="1787.82" y="940.95" width="23.22" height="24.6" transform="translate(3598.86 1906.51) rotate(180)"/>
          <rect class="cls-3" x="1787.82" y="968.17" width="23.22" height="3.3" transform="translate(3598.86 1939.64) rotate(180)"/>
          <rect class="cls-9" x="1815.28" y="1038.25" width="21.48" height="11.93" transform="translate(3652.05 2088.44) rotate(180)"/>
          <rect class="cls-9" x="1731.08" y="930.55" width="22.76" height="4.59" transform="translate(3123.16 2347.09) rotate(-162.48)"/>
          <rect class="cls-9" x="1642.72" y="921.5" width="23.31" height="3.49" transform="translate(3308.76 1846.48) rotate(180)"/>
          <rect class="cls-9" x="1642.59" y="916.72" width="23.31" height="3.49" transform="translate(3308.49 1836.93) rotate(180)"/>
          <path class="cls-9" d="m1654.38,926.27h0c6.43,0,11.66,5.22,11.66,11.66v9.55h-23.31v-9.55c0-6.43,5.22-11.66,11.66-11.66Z" transform="translate(3308.76 1873.74) rotate(180)"/>
        </g>
        <rect class="cls-11" x="1876.62" y="392.16" width="65.93" height="899.11"/>
        <rect class="cls-11" x="1578.45" y="603.35" width="293.1" height="24.51"/>
        <rect class="cls-11" x="1578.45" y="827.87" width="293.1" height="25.14"/>
        <rect class="cls-11" x="1578.45" y="1053.33" width="293.1" height="24.82"/>
        <path class="cls-11" d="m1070.56,310.38v979.39h471.95V310.38h-471.95Zm459.96,966.84h-447.98V321.89h447.98v955.33Z"/>
        <rect class="cls-11" x="1542.51" y="310.38" width="71.9" height="979.74"/>
        <rect class="cls-11" x="1076.09" y="540.68" width="460.88" height="26.73"/>
        <rect class="cls-11" x="1076.09" y="786.19" width="460.88" height="26.73"/>
        <rect class="cls-11" x="1076.09" y="1031.7" width="460.88" height="26.73"/>
        <polygon class="cls-11" points="1614.4 392.16 1614.4 402.72 1865.63 402.72 1865.63 1278.78 1614.4 1278.78 1614.4 1290.55 1876.62 1290.55 1876.62 392.16 1614.4 392.16"/>
        <g>
          <path class="cls-5" d="m687.4,590.37s7.5-18.38,15.75-19.13c8.25-.75,34.51-4.88,36.38-1.13,1.88,3.75,0,17.25-5.63,22.13-5.63,4.88-40.51,12.75-40.51,12.75l-6-14.63Z"/>
          <path class="cls-13" d="m487.55,470.9c3.11-6.43,6.59-17.85,8.3-38.2-.26,2.02-3.77,27.69-13.64,42.23-40.55,26.62-118.28,115.52-116.74,132.36,0,0-27.38-46.43-27.85-46.71,0,0-50.5-64.22,9.35-101,30.42-18.7,30.27-42.69,28.99-63.53-1.28-20.85,8.3-110.57,69.24-87.09,0,0,9.78-4.35,14.16-3.69,0,0-3.58.68-5.4,2.56,7.06-.42,17.17.1,25.59,4.9,22.34,12.69,42.33,126.59,7.99,158.19Z"/>
          <path class="cls-5" d="m479.81,476.25c.2.09-19.58,10.36-34.46,6.29-14-3.82-23.14-21.96-22.95-22.01,5.93-1.18,7.64-9.32,7.51-44.32l2.68.53,45.06,8.92s-1.03,14.18-1.06,27.54c-.03,11.22.65,21.85,3.22,23.05Z"/>
          <path class="cls-2" d="m477.65,425.66s-1.03,14.18-1.06,27.54c-25.21-.71-38.54-23.71-44-36.46l45.06,8.92Z"/>
          <path class="cls-13" d="m427.94,411.84s-13.21-20.88-16.38-38.73c-2.26-12.74,4.23-59.99,51.7-53.18,0,0,13.79,1.36,26.75,10.11,10.31,6.96,25.18,21.99,8.55,63.21l-4.32,13.93-66.29,4.66Z"/>
          <path class="cls-5" d="m486.07,438.31s-59.65.98-59.69-36.17c-.04-37.16-7.77-62.06,30.32-64.26,38.09-2.2,45.5,11.97,48.53,24.37,3.03,12.4-3.64,74.85-19.15,76.06Z"/>
          <path class="cls-13" d="m429.74,344.81s40.74-27.86,53.63-8.59c3.91-3.35,10.87-5.78,20.07,5.38,13.83,16.76,1.52,46.39,1.52,46.39-5.68.66-7.02-18.82-9.99-28.28-2.24-7.14-9.73-14.42-13.28-17.58-5.2,11.73-19.52,39.81-39.25,44.88-25.07,6.45-35.94-.27-35.94-.27,0,0,19.23-15.27,23.22-41.93Z"/>
          <path class="cls-6" d="m346.98,636.73c-5.88-24.67,14.13-72.55,35.02-112.18,18.96-35.92,38.63-65.06,40.4-64.02,50,29.67,54.51,5,54.51,5,0,0,45.41,6.03,58.27,28.17,17.79,30.61,37.16,122.47,56.19,121.11,8.74-.63,96.65-33.67,96.65-33.67,0,0,14.65,13.72,11.84,30.55,0,0-43.4,29.07-80.11,47.61-19.42,9.81-36.96,16.67-45.21,14.73-16.72-3.94-42.84-42.7-56.95-65.52-.03-.05-.06-.1-.09-.15-18.01,101.97,6.48,125.19-5.92,135.94-13.09,11.35-31.8-5.41-72.95,12.43-26.99,11.71-64.45,28.64-89.66,31.58-13.22,1.55-23.09-.75-26.31-9.68-9.35-25.95,35.54-94.88,24.32-141.91Z"/>
          <path class="cls-3" d="m472.81,415.79s1.11,4.72,12.85,3.99c0,0,9.86-.61,9.56-5.8,0,0-9.56-3.69-22.41,1.8Z"/>
          <path class="cls-14" d="m322.66,778.64c3.22,8.93,13.08,11.23,26.31,9.68,17.45-7.6,92.84-36.81,92-56.6-1.25-29.3-14.5-30.24-5.14-66.4,7.51-29.04-43.54-88.75-54.65-100.48-20.89,39.63-40.08,47.22-34.19,71.89,11.22,47.03-33.67,115.96-24.32,141.91Z"/>
          <path class="cls-14" d="m517.59,608.53c14.11,22.82,40.23,61.58,56.95,65.52,8.25,1.95,25.79-4.92,45.21-14.73-14.17,3.66-27.93,3.55-41.31,2.26-14.5-1.4-18.7-19.17-41.62-45.83-14.86-17.28-18.51-12.93-19.24-7.23Z"/>
          <path class="cls-5" d="m447.75,664.62s12.63-9.82,24.55-7.48c11.92,2.34,17.77,10.52,17.3,14.26-.47,3.74-6.78,14.26-15.9,15.2-9.12.93-35.07-5.61-35.07-5.61l9.12-16.37Z"/>
          <path class="cls-6" d="m422.4,460.54s-48.62,3-65.45,26.47c-23.69,33.04-64.84,167.95-53.62,198.81l147.92-.62s3.58-16.76-1.4-24.86c-4.99-8.11-86.04-21.2-89.78-24.94-3.74-3.74,46.76-72.95,46.76-84.17s15.57-90.69,15.57-90.69Z"/>
        </g>
        <g>
          <polygon class="cls-11" points="17.25 1293.75 942.37 1293.75 942.37 989.94 17.25 986.91 17.25 1293.75"/>
          <rect class="cls-11" x="19.42" y="743.02" width="925.12" height="79.45"/>
        </g>
        <path class="cls-7" d="m0,685.75h965.71c14.13,0,25.58,11.45,25.58,25.58v6.11c0,14.13-11.45,25.58-25.58,25.58H0"/>
        <polygon class="cls-7" points="29.53 986.33 930.09 989.36 930.09 822.79 29.53 822.79 29.53 986.33"/>
        <g>
          <g>
            <polygon class="cls-13" points="176.39 548 206.04 685.75 90.49 685.75 65.11 550.51 67.91 548 176.39 548"/>
            <polygon class="cls-15" points="179.67 548 209.32 685.75 93.77 685.75 67.92 548 179.67 548"/>
            <polygon class="cls-3" points="175.7 552.38 202.48 676.81 98.11 676.81 74.76 552.38 175.7 552.38"/>
          </g>
          <g>
            <path class="cls-15" d="m88.45,562.38h79.44c1.46,0,2.66,1.2,2.66,2.66s-1.2,2.66-2.66,2.66h-79.44c-1.46,0-2.66-1.2-2.66-2.66s1.2-2.66,2.66-2.66Z"/>
            <path class="cls-15" d="m92.5,574.92h79.44c1.46,0,2.66,1.2,2.66,2.66s-1.2,2.66-2.66,2.66h-79.44c-1.46,0-2.66-1.2-2.66-2.66s1.2-2.66,2.66-2.66Z"/>
            <path class="cls-15" d="m95.04,586.96h79.44c1.46,0,2.66,1.2,2.66,2.66s-1.2,2.66-2.66,2.66h-79.44c-1.46,0-2.66-1.2-2.66-2.66s1.2-2.66,2.66-2.66Z"/>
            <path class="cls-15" d="m98.71,611.77h79.44c1.46,0,2.66,1.2,2.66,2.66s-1.2,2.66-2.66,2.66h-79.44c-1.46,0-2.66-1.2-2.66-2.66s1.2-2.66,2.66-2.66Z"/>
            <path class="cls-15" d="m102.77,624.32h79.44c1.46,0,2.66,1.2,2.66,2.66s-1.2,2.66-2.66,2.66h-79.44c-1.46,0-2.66-1.2-2.66-2.66s1.2-2.66,2.66-2.66Z"/>
            <path class="cls-15" d="m105.3,636.36h79.44c1.46,0,2.66,1.2,2.66,2.66s-1.2,2.66-2.66,2.66h-79.44c-1.46,0-2.66-1.2-2.66-2.66s1.2-2.66,2.66-2.66Z"/>
          </g>
        </g>
        <rect class="cls-9" x="1082.54" y="367.43" width="33.22" height="173.24"/>
        <rect class="cls-9" x="1298" y="367.43" width="33.22" height="173.24"/>
        <rect class="cls-1" x="1115.76" y="344.08" width="33.22" height="196.59"/>
        <rect class="cls-13" x="1148.98" y="388.33" width="33.22" height="152.35"/>
        <rect class="cls-9" x="1464.09" y="388.33" width="33.22" height="152.35"/>
        <rect class="cls-13" x="1497.3" y="367.43" width="33.22" height="173.24"/>
        <rect class="cls-1" x="1331.22" y="355.45" width="33.22" height="185.23"/>
        <rect class="cls-1" x="1430.87" y="355.45" width="33.22" height="185.23"/>
        <rect class="cls-9" x="1364.44" y="344.08" width="33.22" height="196.59"/>
        <rect class="cls-13" x="1397.66" y="388.33" width="33.22" height="152.35"/>
        <rect class="cls-9" x="1182.2" y="367.43" width="33.22" height="173.24"/>
        <polygon class="cls-1" points="1298.63 530.25 1267 540.68 1215.42 375.73 1247.05 365.3 1298.63 530.25"/>
        <rect class="cls-1" x="1085.25" y="381.26" width="27.81" height="7.68"/>
        <rect class="cls-1" x="1085.25" y="391.55" width="27.81" height="3.23"/>
        <rect class="cls-1" x="1184.9" y="521.37" width="27.81" height="7.68"/>
        <rect class="cls-1" x="1184.9" y="531.66" width="27.81" height="3.23"/>
        <rect class="cls-1" x="850.64" y="582.52" width="33.22" height="173.24" transform="translate(1536.4 -198.11) rotate(90)"/>
        <rect class="cls-13" x="782.19" y="665.3" width="27.81" height="7.68" transform="translate(1465.24 -126.95) rotate(90)"/>
        <rect class="cls-13" x="774.13" y="667.53" width="27.81" height="3.23" transform="translate(1457.18 -118.89) rotate(90)"/>
        <rect class="cls-9" x="868.16" y="549.3" width="33.22" height="173.24" transform="translate(1520.69 -248.84) rotate(90)"/>
        <path class="cls-1" d="m950,645.99v-20.13c0-2.12,1.72-3.84,3.84-3.84h0c2.12,0,3.84,1.72,3.84,3.84v20.13c0,2.12-1.72,3.84-3.84,3.84h0c-2.12,0-3.84-1.72-3.84-3.84Z"/>
        <rect class="cls-1" x="931.87" y="634.31" width="27.81" height="3.23" transform="translate(1581.7 -309.85) rotate(90)"/>
        <rect class="cls-1" x="948.07" y="634.31" width="27.81" height="3.23" transform="translate(1597.9 -326.05) rotate(90)"/>
        <rect class="cls-13" x="835.9" y="516.09" width="33.22" height="173.24" transform="translate(1455.21 -249.8) rotate(90)"/>
        <path class="cls-1" d="m805.36,569.02h0c7.67,0,13.9,6.23,13.9,13.9v53.47h-27.81v-53.47c0-7.67,6.23-13.9,13.9-13.9Z" transform="translate(1408.06 -202.65) rotate(90)"/>
        <rect class="cls-1" x="1302.85" y="374.81" width="23.97" height="98.63"/>
        <path class="cls-1" d="m1482.75,414.75h-3.38c-3.99,0-7.22-3.23-7.22-7.22h0c0-3.99,3.23-7.22,7.22-7.22h3.38c3.99,0,7.22,3.23,7.22,7.22h0c0,3.99-3.23,7.22-7.22,7.22Z"/>
        <rect class="cls-1" x="1367.53" y="355.45" width="26.88" height="3.23"/>
        <rect class="cls-1" x="1367.53" y="361.44" width="26.88" height="3.23"/>
        <rect class="cls-1" x="1367.53" y="367.43" width="26.88" height="3.23"/>
        <rect class="cls-3" x="1151.01" y="399.23" width="29.15" height="30.88"/>
        <rect class="cls-3" x="1151.01" y="433.4" width="29.15" height="4.15"/>
        <rect class="cls-3" x="1499.88" y="531.51" width="27.42" height="4.84"/>
        <rect class="cls-3" x="1499.88" y="523.44" width="27.42" height="4.84"/>
        <rect class="cls-3" x="1499.88" y="493.25" width="27.42" height="26.27"/>
        <path class="cls-9" d="m1414.84,479.26h-1.15c-7.25,0-13.14-5.88-13.14-13.14h0c0-7.25,5.88-13.14,13.14-13.14h1.15c7.25,0,13.14,5.88,13.14,13.14h0c0,7.25-5.88,13.14-13.14,13.14Z"/>
        <rect class="cls-9" x="1118.72" y="521.37" width="26.96" height="14.98"/>
        <rect class="cls-9" x="1222.81" y="386.17" width="28.57" height="5.76" transform="translate(-59.73 390.57) rotate(-17.52)"/>
        <rect class="cls-9" x="1333.04" y="374.81" width="29.27" height="4.38"/>
        <rect class="cls-9" x="1333.2" y="368.81" width="29.27" height="4.38"/>
        <path class="cls-9" d="m1347.67,407.41h0c-8.08,0-14.63-6.55-14.63-14.63v-11.98h29.27v11.98c0,8.08-6.55,14.63-14.63,14.63Z"/>
        <g>
          <rect class="cls-13" x="1215.1" y="633.8" width="33.22" height="152.35"/>
          <rect class="cls-13" x="1380.97" y="633.8" width="33.22" height="152.35"/>
          <rect class="cls-9" x="1248.31" y="633.8" width="33.22" height="152.35"/>
          <rect class="cls-13" x="1347.76" y="612.91" width="33.22" height="173.24"/>
          <rect class="cls-1" x="1115.53" y="601" width="33.22" height="185.23"/>
          <rect class="cls-1" x="1181.95" y="601" width="33.22" height="185.23"/>
          <rect class="cls-9" x="1148.74" y="589.59" width="33.22" height="196.59"/>
          <rect class="cls-9" x="1082.32" y="612.91" width="33.22" height="173.24"/>
          <rect class="cls-9" x="1414.19" y="633.8" width="33.22" height="152.35"/>
          <rect class="cls-1" x="1281.32" y="600.92" width="33.22" height="185.23"/>
          <rect class="cls-9" x="1314.54" y="589.56" width="33.22" height="196.59"/>
          <polygon class="cls-1" points="1527.1 775.72 1495.47 786.15 1443.88 621.2 1475.51 610.78 1527.1 775.72"/>
          <rect class="cls-1" x="1385.17" y="642.66" width="25.12" height="29.04"/>
          <rect class="cls-1" x="1317.77" y="600.14" width="25.35" height="6.91"/>
          <rect class="cls-1" x="1317.77" y="611.78" width="25.35" height="6.91"/>
          <rect class="cls-3" x="1350.38" y="629.64" width="27.77" height="3.46"/>
          <path class="cls-13" d="m1098.85,651.34h0c-6.78,0-12.27-5.49-12.27-12.27v-18.84h24.54v18.84c0,6.78-5.49,12.27-12.27,12.27Z"/>
          <rect class="cls-13" x="1183.94" y="606.4" width="28.11" height="3.8"/>
          <rect class="cls-13" x="1151.22" y="777" width="27.96" height="5.99"/>
          <rect class="cls-13" x="1151.22" y="769.02" width="27.96" height="5.99"/>
          <path class="cls-13" d="m1165.2,763.64h0c-6.68,0-12.1-5.42-12.1-12.1h0c0-6.68,5.42-12.1,12.1-12.1h0c6.68,0,12.1,5.42,12.1,12.1h0c0,6.68-5.42,12.1-12.1,12.1Z"/>
          <rect class="cls-9" x="1119.93" y="658.74" width="24.43" height="58.3"/>
          <rect class="cls-3" x="1218.35" y="646.27" width="26.12" height="5.99"/>
          <rect class="cls-3" x="1218.65" y="676.53" width="26.12" height="5.99"/>
          <path class="cls-3" d="m1439.35,658.86h-18.29c-2.5,0-4.53-2.03-4.53-4.53h0c0-2.5,2.03-4.53,4.53-4.53h18.29c2.5,0,4.53,2.03,4.53,4.53h0c0,2.5-2.03,4.53-4.53,4.53Z"/>
        </g>
        <g>
          <rect class="cls-9" x="1635.11" y="715.83" width="24.55" height="112.6"/>
          <rect class="cls-13" x="1757.71" y="681.43" width="24.55" height="147"/>
          <rect class="cls-13" x="1659.66" y="715.83" width="24.55" height="112.6"/>
          <rect class="cls-1" x="1733.16" y="700.39" width="24.55" height="128.04"/>
          <rect class="cls-1" x="1614.4" y="691.59" width="20.76" height="136.9"/>
          <rect class="cls-9" x="1782.26" y="715.83" width="24.55" height="112.6"/>
          <rect class="cls-1" x="1684.06" y="741.54" width="24.55" height="86.89"/>
          <rect class="cls-9" x="1708.61" y="683.13" width="24.55" height="145.3"/>
          <polygon class="cls-1" points="1865.71 820.73 1842.33 828.43 1804.2 706.52 1827.58 698.82 1865.71 820.73"/>
          <rect class="cls-9" x="1760.81" y="803.55" width="18.56" height="21.46"/>
          <rect class="cls-1" x="1710.99" y="690.96" width="18.73" height="5.11"/>
          <rect class="cls-1" x="1710.99" y="699.56" width="18.73" height="5.11"/>
          <rect class="cls-3" x="1735.09" y="712.76" width="20.52" height="2.55"/>
          <rect class="cls-13" x="1614.37" y="695.58" width="18.49" height="2.81"/>
          <rect class="cls-3" x="1637.52" y="725.05" width="19.3" height="4.43"/>
          <rect class="cls-3" x="1637.74" y="747.41" width="19.3" height="4.43"/>
          <path class="cls-3" d="m1800.86,734.36h-13.52c-1.85,0-3.35-1.5-3.35-3.35h0c0-1.85,1.5-3.35,3.35-3.35h13.52c1.85,0,3.35,1.5,3.35,3.35h0c0,1.85-1.5,3.35-3.35,3.35Z"/>
        </g>
        <g>
          <rect class="cls-13" x="1737.32" y="1160.26" width="25.96" height="119.08" transform="translate(3500.6 2439.6) rotate(180)"/>
          <rect class="cls-9" x="1614.4" y="1160.26" width="19.23" height="119.08" transform="translate(3248.03 2439.6) rotate(180)"/>
          <rect class="cls-9" x="1711.35" y="1160.26" width="25.96" height="119.08" transform="translate(3448.67 2439.6) rotate(180)"/>
          <rect class="cls-13" x="1633.63" y="1143.93" width="25.96" height="135.41" transform="translate(3293.22 2423.26) rotate(180)"/>
          <rect class="cls-1" x="1815.14" y="1134.62" width="25.96" height="144.78" transform="translate(3656.24 2414.02) rotate(180)"/>
          <rect class="cls-1" x="1763.22" y="1134.62" width="25.96" height="144.78" transform="translate(3552.41 2414.02) rotate(180)"/>
          <rect class="cls-9" x="1789.19" y="1125.71" width="25.96" height="153.66" transform="translate(3604.34 2405.07) rotate(180)"/>
          <rect class="cls-9" x="1841.1" y="1143.93" width="25.96" height="135.41" transform="translate(3708.17 2423.26) rotate(180)"/>
          <rect class="cls-1" x="1685.55" y="1134.56" width="25.96" height="144.78" transform="translate(3397.07 2413.9) rotate(180)"/>
          <rect class="cls-9" x="1659.59" y="1125.68" width="25.96" height="153.66" transform="translate(3345.14 2405.01) rotate(180)"/>
          <rect class="cls-1" x="1614.4" y="1167.18" width="15.94" height="22.69" transform="translate(3244.75 2357.05) rotate(180)"/>
          <rect class="cls-1" x="1663.22" y="1133.95" width="19.81" height="5.4" transform="translate(3346.25 2273.3) rotate(180)"/>
          <rect class="cls-1" x="1663.22" y="1143.04" width="19.81" height="5.4" transform="translate(3346.25 2291.49) rotate(180)"/>
          <rect class="cls-3" x="1635.84" y="1157" width="21.7" height="2.7" transform="translate(3293.38 2316.71) rotate(180)"/>
          <path class="cls-13" d="m1854.14,1173.96h0c5.3,0,9.59-4.29,9.59-9.59v-14.72h-19.18v14.72c0,5.3,4.29,9.59,9.59,9.59Z"/>
          <rect class="cls-13" x="1765.66" y="1138.84" width="21.97" height="2.97" transform="translate(3553.29 2280.65) rotate(180)"/>
          <rect class="cls-13" x="1791.36" y="1272.19" width="21.85" height="4.68" transform="translate(3604.57 2549.06) rotate(180)"/>
          <rect class="cls-13" x="1791.36" y="1265.94" width="21.85" height="4.68" transform="translate(3604.57 2536.57) rotate(180)"/>
          <path class="cls-13" d="m1802.28,1261.74h0c5.22,0,9.46-4.23,9.46-9.46h0c0-5.22-4.23-9.46-9.46-9.46h0c-5.22,0-9.46,4.23-9.46,9.46h0c0,5.22,4.23,9.46,9.46,9.46Z"/>
          <rect class="cls-9" x="1818.57" y="1179.75" width="19.09" height="45.57" transform="translate(3656.24 2405.07) rotate(180)"/>
          <rect class="cls-3" x="1740.32" y="1170" width="20.41" height="4.68" transform="translate(3501.06 2344.69) rotate(180)"/>
          <rect class="cls-3" x="1740.09" y="1193.66" width="20.41" height="4.68" transform="translate(3500.6 2392) rotate(180)"/>
        </g>
        <g>
          <g>
            <rect class="cls-9" x="1210.58" y="1135.3" width="32.03" height="141.84"/>
            <rect class="cls-13" x="1466.62" y="1135.3" width="32.03" height="141.84"/>
            <rect class="cls-13" x="1370.52" y="1130.24" width="32.03" height="146.9"/>
            <rect class="cls-1" x="1242.61" y="1130.24" width="32.03" height="146.9"/>
            <rect class="cls-9" x="1338.49" y="1150.04" width="32.03" height="127.11"/>
            <rect class="cls-13" x="1114.57" y="1085.26" width="32.03" height="191.96"/>
            <rect class="cls-9" x="1434.58" y="1085.26" width="32.03" height="191.96"/>
            <rect class="cls-13" x="1178.62" y="1098.61" width="32.03" height="178.6"/>
            <rect class="cls-9" x="1146.59" y="1145.67" width="32.03" height="131.51"/>
            <rect class="cls-1" x="1082.54" y="1110.09" width="32.03" height="167.05"/>
            <rect class="cls-1" x="1498.49" y="1110.09" width="32.03" height="167.05"/>
            <rect class="cls-1" x="1402.55" y="1104.45" width="32.03" height="172.69"/>
            <rect class="cls-13" x="1274.44" y="1098.54" width="32.03" height="178.6"/>
            <rect class="cls-1" x="1306.47" y="1087.58" width="32.03" height="189.57"/>
            <rect class="cls-1" x="1374.57" y="1138.78" width="24.22" height="28"/>
            <rect class="cls-1" x="1309.58" y="1097.78" width="24.44" height="6.67"/>
            <rect class="cls-1" x="1309.58" y="1109" width="24.44" height="6.67"/>
            <path class="cls-13" d="m1098.48,1147.15h0c-6.53,0-11.83-5.3-11.83-11.83v-18.17h23.66v18.17c0,6.53-5.3,11.83-11.83,11.83Z"/>
            <rect class="cls-13" x="1180.53" y="1103.82" width="27.11" height="3.67"/>
            <rect class="cls-13" x="1148.98" y="1268.33" width="26.96" height="5.78"/>
            <rect class="cls-13" x="1148.98" y="1260.62" width="26.96" height="5.78"/>
            <path class="cls-13" d="m1162.46,1255.44h0c-6.44,0-11.67-5.22-11.67-11.67h0c0-6.44,5.22-11.67,11.67-11.67h0c6.44,0,11.67,5.22,11.67,11.67h0c0,6.44-5.22,11.67-11.67,11.67Z"/>
            <rect class="cls-9" x="1118.81" y="1154.29" width="23.55" height="56.22"/>
            <rect class="cls-3" x="1213.72" y="1142.26" width="25.18" height="5.78"/>
            <rect class="cls-3" x="1214" y="1171.44" width="25.18" height="5.78"/>
            <path class="cls-3" d="m1426.82,1120.63h-17.63c-2.41,0-4.37-1.96-4.37-4.37h0c0-2.41,1.96-4.37,4.37-4.37h17.63c2.41,0,4.37,1.96,4.37,4.37h0c0,2.41-1.96,4.37-4.37,4.37Z"/>
          </g>
          <rect class="cls-3" x="1278.12" y="1252.33" width="24.66" height="21.77"/>
          <rect class="cls-9" x="1341.25" y="1266.4" width="26.12" height="4.81"/>
          <rect class="cls-9" x="1503.18" y="1182.36" width="23.04" height="7.51"/>
          <rect class="cls-9" x="1503.18" y="1194.58" width="23.04" height="7.51"/>
        </g>
        <g>
          <g>
            <rect class="cls-9" x="1705.58" y="461.43" width="32.03" height="141.84" transform="translate(3443.18 1064.7) rotate(180)"/>
            <rect class="cls-1" x="1673.55" y="456.37" width="32.03" height="146.9" transform="translate(3379.12 1059.64) rotate(180)"/>
            <rect class="cls-13" x="1801.58" y="411.39" width="32.03" height="191.96" transform="translate(3635.19 1014.74) rotate(180)"/>
            <rect class="cls-13" x="1737.53" y="424.74" width="32.03" height="178.6" transform="translate(3507.1 1028.09) rotate(180)"/>
            <rect class="cls-9" x="1769.56" y="471.8" width="32.03" height="131.51" transform="translate(3571.16 1075.1) rotate(180)"/>
            <rect class="cls-1" x="1833.61" y="436.22" width="32.03" height="167.05" transform="translate(3699.25 1039.49) rotate(180)"/>
            <rect class="cls-13" x="1641.72" y="424.67" width="32.03" height="178.6" transform="translate(3315.47 1027.94) rotate(180)"/>
            <rect class="cls-1" x="1614.4" y="413.71" width="27.31" height="189.57" transform="translate(3256.12 1016.98) rotate(180)"/>
            <rect class="cls-9" x="1614.4" y="423.91" width="24.2" height="6.67" transform="translate(3253.01 854.49) rotate(180)"/>
            <rect class="cls-9" x="1614.4" y="435.13" width="24.2" height="6.67" transform="translate(3253.01 876.93) rotate(180)"/>
            <path class="cls-13" d="m1849.7,473.28h0c6.53,0,11.83-5.3,11.83-11.83v-18.17h-23.66v18.17c0,6.53,5.3,11.83,11.83,11.83Z"/>
            <rect class="cls-13" x="1740.54" y="429.95" width="27.11" height="3.67" transform="translate(3508.19 863.56) rotate(180)"/>
            <rect class="cls-13" x="1772.24" y="594.45" width="26.96" height="5.78" transform="translate(3571.45 1194.68) rotate(180)"/>
            <rect class="cls-13" x="1772.24" y="586.75" width="26.96" height="5.78" transform="translate(3571.45 1179.28) rotate(180)"/>
            <path class="cls-13" d="m1785.72,581.56h0c6.44,0,11.67-5.22,11.67-11.67h0c0-6.44-5.22-11.67-11.67-11.67h0c-6.44,0-11.67,5.22-11.67,11.67h0c0,6.44,5.22,11.67,11.67,11.67Z"/>
            <rect class="cls-9" x="1805.82" y="480.42" width="23.55" height="56.22" transform="translate(3635.19 1017.05) rotate(180)"/>
            <rect class="cls-3" x="1709.28" y="468.39" width="25.18" height="5.78" transform="translate(3443.75 942.56) rotate(180)"/>
            <rect class="cls-3" x="1709" y="497.57" width="25.18" height="5.78" transform="translate(3443.18 1000.92) rotate(180)"/>
          </g>
          <rect class="cls-3" x="1645.4" y="578.46" width="24.66" height="21.77" transform="translate(3315.47 1178.69) rotate(180)"/>
        </g>
      </g>
      <path class="cls-12" d="m2011.93,1289.77c1.69,0,3.08,1.39,3.08,3.08h0c0,1.69-1.39,3.08-3.08,3.08"/>
      <g>
        <g>
          <g>
            <path class="cls-15" d="m1138.14,178.25s21.94-25.59,1.35-41.85c0,0-15.03-9.1-27.29-8.36,0,0,17.37,29.13,11.75,32.03-5.62,2.9-17.02-33.85-17.02-33.85,0,0-34.21-3.32-45.22,1.97,0,0,29.25,23.94,23.09,25.36-6.16,1.43-37.75-22.07-37.75-22.07,0,0-31.84,5.42-30.15,24.84,1.7,19.43,12.67,25.42,17.49,24.91,4.82-.52,33.03-11.29,33.65-7.33.61,3.95-16.37,16.87-28.26,17.47,0,0,22.45,24.76,37.37,17.61,14.92-7.15,16.19-18.47,25.49-22.72,9.3-4.25,17.24-4.24,13.4.09-3.84,4.33-20.67,8.54-25.99,17.95-5.32,9.41-10.09,15.75,5.35,13.43,15.44-2.32,40.53-13.62,41.63-26.55l1.1-12.94Z"/>
            <g>
              <path class="cls-15" d="m1032.55,156.84s86.49-3.33,105.59,21.4c0,0,4.22,12.65,17.22,24.17l2.03,5.52s-14.99-15.8-20.35-16.76c0,0,8.39-30.64-104.49-34.34Z"/>
              <path class="cls-15" d="m1155.36,202.42s18.57,13.73,19.85,38.26l-3.37.3s-5.93-25.37-16.65-35.28c-10.72-9.92.16-3.28.16-3.28Z"/>
            </g>
          </g>
          <g>
            <path class="cls-8" d="m1214.84,146.06s-34.89-19.54-18.61-46.06c0,0,13.03-16.28,26.98-20.47,0,0-7.44,39.55,0,40.48,7.44.93,5.12-44.66,5.12-44.66,0,0,36.76-17.68,51.18-16.28,0,0-22.8,38.62-15.35,37.69,7.44-.93,33.03-40.01,33.03-40.01,0,0,37.69-6.98,43.73,15.35,6.05,22.33-3.72,33.5-9.3,34.89-5.58,1.4-41.41.93-40.48,5.58.93,4.65,25.12,12.1,38.62,7.91,0,0-14.89,36.76-34.43,34.89-19.54-1.86-25.59-13.96-37.69-14.89-12.1-.93-20.94,2.33-14.89,5.58,6.05,3.26,26.52,1.07,36.29,9.37,9.77,8.31,17.68,13.42-.47,17.15-18.15,3.72-50.71,1.4-57.23-12.56l-6.51-13.96Z"/>
            <g>
              <path class="cls-15" d="m1323.71,79.07s-97.7,31.64-108.87,67c0,0,.47,15.82-9.3,33.96v6.98s10.24-23.73,15.82-26.99c0,0-21.87-30.71,102.36-80.96Z"/>
              <path class="cls-15" d="m1205.53,180.03s-15.07,22.88-6.48,50.73l3.88-1.04s-3.76-30.68,4.12-46.11c7.88-15.43-1.52-3.59-1.52-3.59Z"/>
            </g>
          </g>
          <g>
            <path class="cls-8" d="m1159.32,119.11s46-25.76,24.53-60.72c0,0-17.17-21.47-35.57-26.99,0,0,9.81,52.13,0,53.36-9.81,1.23-6.75-58.88-6.75-58.88,0,0-48.45-23.3-67.46-21.47,0,0,30.05,50.9,20.24,49.68-9.81-1.23-43.54-52.74-43.54-52.74,0,0-49.68-9.2-57.65,20.24-7.97,29.44,4.91,44.16,12.27,46,7.36,1.84,54.58,1.23,53.36,7.36-1.23,6.13-33.12,15.95-50.9,10.43,0,0,19.63,48.45,45.38,46,25.76-2.45,33.73-18.4,49.68-19.63,15.95-1.23,27.6,3.07,19.63,7.36-7.97,4.29-34.96,1.41-47.84,12.36-12.88,10.95-23.31,17.7.61,22.6,23.92,4.91,66.85,1.84,75.44-16.56l8.59-18.4Z"/>
            <g>
              <path class="cls-15" d="m1015.81,30.8s128.79,41.7,143.51,88.31c0,0-.61,20.85,12.27,44.77v9.2s-13.49-31.28-20.85-35.57c0,0,28.82-40.48-134.93-106.71Z"/>
              <path class="cls-15" d="m1171.59,163.88s19.86,30.16,8.54,66.88l-5.11-1.37s4.96-40.44-5.43-60.78c-10.39-20.34,2-4.73,2-4.73Z"/>
            </g>
          </g>
          <path class="cls-1" d="m1160.87,310.38c-49.76,0-90.1-40.34-90.1-90.1h180.2c0,49.76-40.34,90.1-90.1,90.1Z"/>
          <path class="cls-4" d="m1140.2,307.99c3.1.67,6.41,1.78,10.2,1.78,49.76,0,89.6-39.74,89.6-89.5h-22.38c0,45.97-32.93,82.2-77.41,87.72Z"/>
          <rect class="cls-10" x="1068.72" y="220.28" width="185.22" height="2.76" transform="translate(2322.66 443.32) rotate(180)"/>
        </g>
        <path class="cls-1" d="m1204.12,310.38h-86.5c-1.47,0-2.66-1.19-2.66-2.66h0c0-1.47,1.19-2.66,2.66-2.66h86.5c1.47,0,2.66,1.19,2.66,2.66h0c0,1.47-1.19,2.66-2.66,2.66Z"/>
      </g>
    </g>
  </g>
</svg>