<?xml version="1.0" encoding="UTF-8"?>
<svg id="Layer_2" data-name="Layer 2" xmlns="http://www.w3.org/2000/svg" xmlns:xlink="http://www.w3.org/1999/xlink" viewBox="0 0 230.28 210">
  <defs>
    <style>
      .cls-1, .cls-2, .cls-3, .cls-4, .cls-5, .cls-6 {
        fill: none;
      }

      .cls-2 {
        stroke: #d85b5b;
      }

      .cls-2, .cls-3 {
        stroke-linejoin: round;
      }

      .cls-2, .cls-3, .cls-4, .cls-5, .cls-6 {
        stroke-linecap: round;
      }

      .cls-3 {
        stroke: #322723;
      }

      .cls-7 {
        clip-path: url(#clippath);
      }

      .cls-8 {
        fill: #e8d6cf;
      }

      .cls-9 {
        fill: #e57873;
      }

      .cls-10 {
        fill: #ede0da;
      }

      .cls-11 {
        fill: #fda68a;
      }

      .cls-12 {
        fill: #7291ba;
      }

      .cls-13 {
        fill: #333231;
      }

      .cls-14 {
        fill: #a9cbe6;
      }

      .cls-15 {
        fill: #c9ada3;
      }

      .cls-16 {
        fill: #de684e;
      }

      .cls-17 {
        fill: #d4b9b0;
      }

      .cls-18 {
        fill: #d89f82;
      }

      .cls-19 {
        fill: #cc5e47;
      }

      .cls-20 {
        fill: #dec3ba;
      }

      .cls-21 {
        fill: #453934;
      }

      .cls-22 {
        fill: #6e6c69;
      }

      .cls-23 {
        fill: #95b9db;
      }

      .cls-24 {
        fill: #545352;
      }

      .cls-25 {
        fill: #474e54;
      }

      .cls-26 {
        fill: #322723;
      }

      .cls-27 {
        fill: #494846;
      }

      .cls-28 {
        fill: #76a287;
      }

      .cls-4 {
        stroke: #b34539;
      }

      .cls-4, .cls-5, .cls-6 {
        stroke-miterlimit: 10;
      }

      .cls-5 {
        stroke: #b37664;
      }

      .cls-6 {
        stroke: #47705c;
        stroke-width: .5px;
      }
    </style>
    <clipPath id="clippath">
      <path class="cls-1" d="m80.04,53.09c-27.52,17.51-45.73-1.64-59.09,14.87-13.36,16.51-29.03,65.76-16.14,84.25,15.59,22.35,34.48,40.64,60.02,50.14,25.53,9.51,53.77,8.96,80.7,4.78,18.82-2.92,38.09-7.9,52.69-20.12,21.94-18.38,28.78-49.03,31.15-77.55,1.27-15.26,1.63-30.77-1.68-45.72s-1.6-48.32-13.46-58.01c-18.02-14.71-53.16,2.71-75.26,9.97-22.1,7.26-35.6,22.55-58.93,37.39Z"/>
    </clipPath>
  </defs>
  <g id="OBJETCS">
    <g class="cls-7">
      <g>
        <g>
          <rect class="cls-12" x="190.42" y="47.46" width="3.53" height="127.64"/>
          <g>
            <g>
              <path class="cls-14" d="m225.34,57.16c-1.22.21-2.45.41-3.69.6-7.11,1.08-14.42,1.72-21.92,1.97-8.58.29-17.4.08-26.44-.57-3.9-.28-7.84-.64-11.82-1.08-.82-.09-1.63-.18-2.45-.28l12.88-52.11c.83-.19,1.66-.37,2.49-.54l1.73-.33c9.06-1.66,17.63-1.91,26.44-.82,2.1.25,4.2.59,6.34,1,1.1.21,2.21.44,3.32.69l13.12,51.47Z"/>
              <path class="cls-23" d="m221.66,57.76c-7.11,1.08-14.42,1.72-21.92,1.97,4.16-2.47,8.24-7.2,7.37-16.18-.93-9.58-3.53-31.27-4.53-39.54,2.1.25,4.2.59,6.34,1l12.74,52.75Z"/>
            </g>
            <path class="cls-1" d="m193.59,65.8s-.02,0-.03.01"/>
          </g>
        </g>
        <g>
          <g>
            <path class="cls-28" d="m91.43,97.21c-2.26-2.78-4.67-6.15-3.79-9.63.35-1.4,1.22-2.65,1.49-4.07.73-3.83-3.04-7.58-1.97-11.33.87-3.04,4.42-4.37,6.35-6.88,1.26-1.64,1.78-3.73,2.8-5.54,1.53-2.72,4.15-4.71,7.04-5.87s6.04-1.56,9.54-1.21c-2.16,1.87-3.52,4.63-3.69,7.48-.16,2.67.65,5.54-.59,7.91-.78,1.49-2.27,2.51-3.13,3.96-1.57,2.65-.73,6.02-1.15,9.08-.69,5.03-4.73,8.85-8.53,12.23-1.45,1.29-2.9,2.57-4.37,3.87Z"/>
            <path class="cls-28" d="m89.13,113.54c.4-3.86.74-8.03-1.28-11.35-.95-1.57-2.37-2.82-3.23-4.44-2.4-4.55.11-10.91-3.21-14.84-2.43-2.87-6.98-3.08-9.52-5.85-1.75-1.91-2.22-4.68-3.74-6.78-1.67-2.3-4.62-3.61-7.45-3.28,2.51,3.44,3.71,7.81,3.31,12.05-.35,3.72-1.79,7.85.35,10.91,1.7,2.43,5.14,3.2,6.74,5.69,1.78,2.76.63,6.45,1.42,9.64.82,3.33,3.73,5.83,6.93,7.07,3.2,1.24,6.69,1.43,9.68,1.18Z"/>
            <path class="cls-28" d="m63.35,104.85c.24-4.57.36-9.55-2.35-13.24-.96-1.31-2.24-2.39-2.95-3.86-.98-2.04-.68-4.42-.73-6.69-.05-2.26-.71-4.84-2.74-5.83-1.7-.83-3.74-.25-5.59-.63-2.94-.59-4.85-3.4-7.43-4.95-4.65-2.79-10.58-1.09-16.07,1.73,2.81-.36,4.98,2.45,5.96,5.1.98,2.66,1.56,5.71,3.78,7.46,1.32,1.04,3.08,1.47,4.22,2.7,1.98,2.12,1.33,5.62,2.75,8.15,1.55,2.74,5,3.58,8.02,4.45,4.06,1.17,7.97,2.83,13.13,5.61Z"/>
            <path class="cls-28" d="m71.57,120.2c-.49-.84-.97-1.68-1.78-2.74-1.46-2.24-3.56-4.06-5.99-5.19-1.08-.5-2.24-.87-3.43-.88-1.48-.01-2.9.55-4.34.91s-3.07.47-4.68-.62c-2.69-1.78-5.79-3.64-8.92-2.88-2.22.54-4.15,2.36-6.42,2.15-.66-.06-1.29-.29-1.93-.47-2.66-.71-5.6-.3-8.22,1.53,5.73.01,8.71,7.9,14.38,8.65,1.65.22,3.34-.22,5-.01,3.53.46,6.03,3.68,9.32,5.01,2.78,1.13,5.98.82,8.8-.2,2.83-1.03,5.35-2.73,8.21-5.26Z"/>
            <path class="cls-28" d="m47.95,139.56c-.11-3.14-.22-6.34-1.19-9.33s-2.91-5.82-5.78-7.12c-2.75-1.25-6.19-1.05-8.45-3.07-1.48-1.32-2.12-3.34-3.35-4.9-2.66-3.39-7.71-4.07-11.81-2.77s-7.49,4.18-11.1,8.13c3.27.09,6.45,1.88,8.24,4.62,1.97,3.03,2.6,7.36,5.91,8.82,3.39,1.49,7.77-1.07,10.89.94,1.4.9,2.15,2.51,3.34,3.67,3.11,3.03,8.14,2.29,13.3,1.01Z"/>
            <path class="cls-28" d="m57.34,149.99c-3.23-2.1-7.05-4.29-10.72-3.12-2.43.78-4.22,2.9-6.6,3.8-2.58.98-5.45.41-8.21.3-6.73-.27-14.12,3.11-15.98,9.9,1.6-1.77,4.41-1.91,6.65-1.09,2.24.82,4.09,2.41,6.05,3.77,1.96,1.36,4.21,2.56,6.59,2.41,5.54-.35,9.21-7.67,14.71-6.89.79.11,1.56.4,2.36.38,1.85-.05,3.28-1.73,3.91-3.48s.7-3.65,1.24-5.98Z"/>
          </g>
          <g>
            <g>
              <g>
                <path class="cls-6" d="m82.97,180.12c1.5-38.16-14.09-76.68-41.78-102.9-3.06-2.78-6.8-4.81-10.8-5.85"/>
                <path class="cls-6" d="m40.91,70.33c.41,2.33.65,4.68.71,7.05"/>
                <path class="cls-6" d="m54.39,76.82c-.48,3.66-1.42,7.26-2.78,10.69"/>
                <path class="cls-6" d="m61.23,93.74c-.65,1.45-1.39,2.85-2.22,4.2"/>
                <path class="cls-6" d="m33.24,76.94c1.69-.8,3.51-1.33,5.37-1.56"/>
                <path class="cls-6" d="m40.34,84.95c2.21-.91,4.6-1.39,6.99-1.4"/>
                <path class="cls-6" d="m46.06,96.46c2.42-1.08,5.08-1.47,7.71-1.86.84-.12,1.68-.24,2.51-.37"/>
              </g>
              <g>
                <path class="cls-6" d="m65.36,118.17c-.64-2.34-2.36-4.19-4.02-5.95"/>
                <path class="cls-6" d="m59.93,118.82c-.88,2.2-2.15,4.23-3.74,5.98"/>
                <path class="cls-6" d="m51.01,117.76c-1.12-2.84-2.94-5.39-5.27-7.37"/>
                <path class="cls-6" d="m45.01,115.87c-1.49,1.41-3.26,2.54-5.17,3.3"/>
                <path class="cls-6" d="m71.91,120.42c-1.9-1.81-4.73-2.26-7.35-2.15s-5.22.7-7.84.59c-6.72-.27-12.9-5.03-19.57-4.17"/>
              </g>
            </g>
            <g>
              <g>
                <path class="cls-6" d="m18.39,118.89c27.39,12.36,48.52,37.82,55.63,67.02"/>
                <path class="cls-6" d="m27.35,123.5c-.09-3.47-1.34-6.91-3.51-9.63"/>
                <path class="cls-6" d="m22.96,121.31c-2.22,1.01-4.51,1.9-6.83,2.64"/>
                <path class="cls-6" d="m38.54,131.11c.27-2.53.09-5.11-.53-7.57"/>
                <path class="cls-6" d="m33.99,127.84c-3.22,1.43-6.49,2.74-9.81,3.92"/>
                <path class="cls-6" d="m44.5,136.29c-2.16,1-4.43,1.74-6.76,2.21"/>
              </g>
              <g>
                <path class="cls-6" d="m52.94,150.2c.37,2.69.26,5.45-.33,8.1"/>
                <path class="cls-6" d="m49.38,151.22c-1.37-1.1-3.01-1.85-4.74-2.16"/>
                <path class="cls-6" d="m43.79,153.52c-.37,2.85-1.12,5.65-2.23,8.3"/>
                <path class="cls-6" d="m36.71,155.14c-1.8-1.38-3.86-2.42-6.04-3.06"/>
                <path class="cls-6" d="m31.12,155.68c-1.13,1.88-2.66,3.52-4.46,4.77"/>
                <path class="cls-6" d="m57.51,150.1c-4.23-.98-8.44,1.3-12.5,2.85-4.35,1.66-9,2.52-13.66,2.53-2.04,0-4.14-.15-6.08.47"/>
              </g>
            </g>
            <g>
              <g>
                <path class="cls-6" d="m91.82,68.15c1.81,3.29,3.26,6.78,4.31,10.39"/>
                <path class="cls-6" d="m98.55,58.49c.75,2.92,1.34,5.88,1.75,8.86"/>
                <path class="cls-6" d="m89.22,86.76c1.44.98,2.68,2.25,3.63,3.71"/>
                <path class="cls-6" d="m94.06,86.78c2.52-1.7,5.39-2.88,8.37-3.44"/>
                <path class="cls-6" d="m98.24,72.89c2.69-1.69,5.64-2.95,8.72-3.71"/>
                <path class="cls-6" d="m92.25,169.75c-7.96-35.27-5.72-80.48,14.71-114.66"/>
              </g>
              <g>
                <path class="cls-6" d="m68.35,78.61c4.17,7.6,8.34,15.21,12.51,22.81,2.47,4.5,4.95,9.02,8.18,13.01"/>
                <path class="cls-6" d="m64.36,85.6c3.23.21,6.41,1.09,9.28,2.58"/>
                <path class="cls-6" d="m80.77,84.52c-1.58,3.07-2.86,6.28-3.82,9.59"/>
                <path class="cls-6" d="m73.63,104.87c1.63-.83,3.35-1.49,5.12-1.98.89-.25,1.82-.45,2.73-.28"/>
              </g>
            </g>
          </g>
        </g>
        <g>
          <g>
            <path class="cls-17" d="m46.84,135.89c1.09-2.13,1-3.32,3.21-6.23,15.5-4.71,34.72-3.83,52.43-3.65,19.75.19,17.99,65.47,14.54,88.02-17.76,3.25-36.17,2.87-52.6-.28-6.42-23.69-11.29-47.8-17.58-77.86Z"/>
            <path class="cls-10" d="m43.74,212.03c-4.17-18.92-8.37-38.12-7.34-57.46.31-5.8,1.14-11.74,4.04-16.78,2.89-5.03,8.24-9,14.04-8.81,6.34.2,11.69,5.28,14.17,11.11s2.67,12.35,2.81,18.68c.43,18.32.86,36.63,2.32,55.41-9.26-.73-18.59-.49-30.04-2.15Z"/>
          </g>
          <g>
            <path class="cls-20" d="m213.1,200.29c-2.99.44-6,.85-9,1.22-28.05,3.47-56.41,3.81-83.55,1.26-4.13-16.58-14.03-75.3-15.03-87.7-1.01-12.4.8-26.13,9.79-34.72,6.15-5.87,14.72-8.43,23.09-9.91,21.62-3.83,50.41-3.02,70.68,10.31,1.5.99,2.82,2.01,3.99,3.12,13.56,12.88,5.19,35.78.03,116.42Z"/>
            <path class="cls-15" d="m213.1,200.29c-2.99.44-6,.85-9,1.22-1.31-35.13-2.5-70.34.26-105.38.39-4.97,1.85-11.13,6.73-12.18.65-.14,1.32-.17,1.97-.09,13.57,12.89,5.2,35.79.04,116.43Z"/>
          </g>
          <path class="cls-8" d="m179.85,208.05c3.97-14.13,5.79-28.95,5.38-43.68-18.87-7.82-37.06-14.1-55.87-15.45-18.81-1.35-38.43,2.56-54.15,14.04-2.14,16.36-2.19,32.64,2.17,47.82,31.85,3.7,64.07,3.76,102.47-2.73Z"/>
          <g>
            <g>
              <path class="cls-11" d="m144.31,88.26c.71-.21,1.37-.56,1.97-1.01,1.98-1.53,3.26-4.3,3.51-7.38.13-1.57-.45-3.65.46-4.85.55-.72,1.58-.98,2.28-1.4,1.53-.92,2.99-1.98,4.39-3.17.84-.72,1.62-1.46,2.45-2.08.84-.64,1.72-1.14,2.75-1.38.03-.06.09-.07.15-.04.03,0,.07-.02.1-.02.39-.07.49.78.03.74l-.02.02c.02,1.29.06,2.58.1,3.86.05,1.65.12,3.29.21,4.94.08,1.41.16,2.81.26,4.22.22,3.01,1.07,5.93,2.52,8.58.05.1.11.2.17.3.41.74.78,1.17.5,2.07-.3.96-1.78,1.64-2.38,2.02-1.86,1.22-3.8,2.28-5.78,3.18-2.15.97-5.99,3.41-8.38,1.92-2.88-1.81-4.75-6.55-5.5-10.19-.02-.16.1-.3.21-.33Z"/>
              <path class="cls-9" d="m146.28,87.24c9.23.71,14.21-6.41,16.44-10.76-.09-1.65-.16-3.29-.21-4.94l-3.11-3.19c-.83.62-1.61,1.37-2.45,2.08-1.4,1.19-2.86,2.25-4.39,3.17-.71.42-1.73.68-2.28,1.4-.92,1.2-.33,3.28-.46,4.85-.28,3.09-1.55,5.86-3.54,7.39Z"/>
            </g>
            <g>
              <path class="cls-19" d="m136.93,123.44c-6.44-1.85-12.68-4.39-18.59-7.54,2.74-8.94,9.38-22.93,16.29-24.16,2.32-.41.87,4.03,2.36,6.72.95,8.32.78,16.77-.06,24.98Z"/>
              <polygon class="cls-9" points="121.23 112.25 113.96 125.37 123.72 137.19 137.4 121.14 121.23 112.25"/>
            </g>
            <g>
              <path class="cls-9" d="m133.83,68.39c-.55,2,1.35,4.24,4.24,5.01,2.9.76,5.69-.25,6.24-2.25s-1.35-4.24-4.24-5.01-5.69.24-6.24,2.25Z"/>
              <path class="cls-11" d="m149.74,83.54c8.65-.89,17.5-11.96,16.57-22.26-.21-2.34-.85-4.46-1.81-6.32-3.07-5.95-9.45-9.15-15.57-7.96-.35.06-.69.14-1.03.24-3.91,1.09-6.98,2.29-8.85,5.02h0c-1.49,2.17-2.21,5.3-2,10.09.08,2.05.35,4.4.8,7.11,1.36,8.3,5.76,14.71,11.9,14.08Z"/>
              <g>
                <path class="cls-25" d="m150.98,69.76c0,.68.34,1.24.76,1.24s.76-.55.76-1.24-.34-1.24-.76-1.24-.76.56-.76,1.24Z"/>
                <path class="cls-25" d="m140.48,68.2c.42-.03.79.51.84,1.19.04.68-.26,1.26-.68,1.28-.42.03-.79-.51-.84-1.19-.04-.68.26-1.26.68-1.28Z"/>
                <path class="cls-3" d="m141.43,63.78c-1.14-.49-2.51-.43-3.6.17"/>
                <path class="cls-3" d="m155.29,64.14c-1.7-.87-3.76-1.01-5.57-.39"/>
                <path class="cls-2" d="m143.94,68.21c-.12.8-1.29,3.94-1.15,4.73.15.8.92,1.32,1.62,1.74"/>
                <path class="cls-2" d="m145.95,77.25c2.72.56,5.08-.15,6.91-2.57"/>
              </g>
              <g>
                <path class="cls-26" d="m167.56,58.14c.62,2.96.06,5.13-.86,7.82-.68.87-1.37,1.74-2.11,2.4-2.66-2.43-5.37-6.38-5.99-10.23-7.23-.48-13.7-.47-20.91.03.03,0,.04,0,.06.03-.5,2.64-.48,7.09-.24,9.77-1.09-1.61-2.06-6.02-2.44-10.23-.57-.29-1.29-1-1.64-2.14-.21-.66-.3-1.45-.17-2.38.22-1.57,2.14-3.16,3.45-2.94-.52-1.77.06-3.82,1.45-5.04,1.38-1.22,3.49-1.55,5.18-.81.9-1.77,2.64-3.1,4.59-3.5s4.07.14,5.59,1.42c1.21-1.46,3.32-2.1,5.13-1.55,1.13.35,2.1,1.15,2.71,2.16.37.61.6,1.29.66,2,1.68-.11,3.38.78,4.26,2.2.88,1.43.89,3.35.04,4.8,1.34.26,2.45,1.43,2.65,2.78.2,1.34-.53,2.78-1.41,3.41Z"/>
                <path class="cls-21" d="m161.36,42.95c-.98-.49-2.11-.66-3.18-.45-1.75.35-3.26,1.7-3.89,3.42-1.48-1.39-3.65-2.01-5.63-1.6-1.99.4-3.74,1.82-4.25,3.68-1.05-.39-2.22-.55-3.31-.32-1.1.24-2.13.91-2.66,1.91-.52.99-.47,2.31.42,2.95-2.11.2-4.12,1.31-5.4,3,0,.01-.03.03-.03.04-.21-.66-.3-1.45-.17-2.38.22-1.57,2.14-3.16,3.45-2.94-.52-1.77.06-3.82,1.45-5.04,1.38-1.22,3.49-1.55,5.18-.81.9-1.77,2.64-3.1,4.59-3.5,1.95-.4,4.07.14,5.59,1.42,1.21-1.46,3.32-2.1,5.13-1.55,1.13.35,2.1,1.16,2.71,2.17Z"/>
              </g>
              <path class="cls-11" d="m160.46,70.61c.87,1.88,3.79,2.4,6.52,1.16s4.24-3.77,3.37-5.66c-.87-1.88-3.79-2.4-6.52-1.16-2.73,1.24-4.24,3.77-3.37,5.66Z"/>
            </g>
            <path class="cls-16" d="m179.69,99.26c-4.83-5.45-8.79-7.61-13.43-10.65-5.39,2.88-10.14,9.96-15.38,9.57-3.47-.26-6.41-5.28-6.23-10.65-5.17,1.85-7.37,2.69-12.63,5.25-1.32,10.71-1.86,20.97-1.35,30.81-3.22,5.36-8.36,11.72-12.37,16.96,7.45,1.04,14.8,2.8,21.91,5.24,4.03,1.39,8.04,3.02,11.42,5.63,3.37,2.61,6.77,6.23,7.39,10.44,15.73-15.73,20.67-39.7,20.67-62.6Z"/>
            <g>
              <g>
                <path class="cls-11" d="m140.77,123.2c-1.84-3.22-10.19-12.31-11.86-12.61-1.6-.29-6.9.63-8.19,1.72-1.01.86-2.97,3.48-2.97,5.24,0,.7.94,1.09,1.65.6.94-.64,1.07-2.39,2.73-3.31,1.11-.62,1.78-.62,3.13-.73-1,.63-2.06,1.29-2.74,2.26-1.37,1.94-3.06,4.55-1.85,5.21,1.44.79,2.21-2.01,3.41-3.11,1.77-1.61,2.49-1.68,2.49-1.68,0,0-1.66,2.94-2.68,4.91-.37.71-.85,1.66-.15,2.48.32.37,1.56-.09,2.03-.7-.13.52.28,1.1.81,1.16.43.04.87-.15,1.17-.46,1.62-1.74,1.95-2.21,2.83-.65.71,2.89,2.14,4.18,2.14,4.18,1.25,1.39,2.35,2.04,4.77,2.26.9-2.21,2.44-4.67,3.28-6.77Z"/>
                <path class="cls-11" d="m182.5,113.05c-1.25,3.72-2.32,7.02-3.33,9.97-1.62,4.76-3.06,8.65-4.7,12.12-1.61,3.43-3.43,6.44-5.81,9.45-3.71,4.67-4.95,4.61-11,1.31-8.51-4.63-14.96-9.1-21.62-16.35.92-3.4.83-5.62,2.81-8.96,6.55,4.45,15.27,8.43,22.53,11.11.81-2.42,1.42-4.25,1.96-5.88,1.25-3.74,2.14-6.43,4.27-12.78.87.29,1.67.43,2.43.47,4.79.21,7.75-3.85,12.46-.46Z"/>
                <path class="cls-9" d="m179.17,123.02c-1.62,4.76-3.06,8.65-4.7,12.12-3.13-3.71-6.91-6.9-11.14-9.31,1.25-3.74,2.14-6.43,4.27-12.78.87.29,1.67.43,2.43.47.35.26.67.56.98.85,2.83,2.77,5.56,5.65,8.16,8.65Z"/>
              </g>
              <g>
                <path class="cls-16" d="m167.06,102.97c1.8-3.08,4.69-5.4,7.43-8.01,1.1.76,2.03,1.35,2.93,1.96,2.85,1.96,4.67,5.12,4.92,8.56.62,8.6-.63,16.49-2.64,25.65-5.98-2.01-11.35-4-18.25-6.57.83-7.23,3.27-17.6,5.61-21.59Z"/>
                <g>
                  <path class="cls-4" d="m172.78,100.6c-2.89,2.2-5.23,5.72-6.96,10.69-1.9,5.49-2.3,8.38-3.14,13.58"/>
                  <path class="cls-4" d="m161.06,106.6c-.51,5.51.11,11.13,1.81,16.4"/>
                </g>
              </g>
            </g>
            <g>
              <g>
                <polygon class="cls-24" points="138.22 136.38 138.84 134.67 118.13 120.67 117.5 125.21 138.22 136.38"/>
                <polygon class="cls-13" points="119.62 123.6 138.22 136.38 91.67 126.7 81.74 118.74 119.62 123.6"/>
              </g>
              <g>
                <g>
                  <polygon class="cls-22" points="70.74 84.92 72.37 83.74 112.38 84.46 120.81 121.85 119.37 123.62 70.74 84.92"/>
                  <polygon class="cls-27" points="70.74 84.92 110.76 85.91 119.37 123.62 79.95 119.92 70.74 84.92"/>
                </g>
                <path class="cls-22" d="m87.77,104.29c.16-1.99,2.97-3.38,6.28-3.11,3.31.27,5.86,2.1,5.7,4.08-.16,1.99-2.97,3.38-6.28,3.11-3.31-.27-5.86-2.1-5.7-4.08Z"/>
              </g>
            </g>
            <g>
              <path class="cls-11" d="m65.04,172.4c-.08,1.93-.39,4.1-1.58,6.92-3.66,4.1-7.32,8.2-10.99,12.3-.68.76-1.36,1.53-1.76,2.47-.4.94-.43,2.08.15,2.91.9,1.29,2.78,1.31,4.33,1.06,6.24-.99,12.12-4.16,16.24-8.57,1.33-.96,2.99-1.28,4.55-1.79,1.55-.51,3.16-1.35,3.82-2.85.51-1.17.34-2.56-.26-3.69s-1.56-2.02-2.63-2.71c-.81-2.42.71-5.93.85-8.32-3.95.65-8.39,1.3-12.72,2.27Z"/>
              <g>
                <path class="cls-18" d="m123.9,133.75c-12.51-10.03-42.62-25.49-49.49-19.11-12.04,11.17-11.63,61.88-12.31,61.57,7.18,1.4,11.36.3,16.8-2.18,1.11-9.8,3.48-26.29,5.9-34.67,13.42,5.1,20,9.38,28.01,15.73-21.67,9.82-46.5,29.4-67.9,45.71,2.86,3.32,5.06,7.7,5.64,12.5,26.92-13.77,52.61-25.38,81.54-35.23,9.45-3.22,22.1-8.12,27.94-17.01.39-5.52-8.95-16.14-14.4-19.3-4.67-2.71-8.9-5.84-21.73-8.01Z"/>
                <g>
                  <path class="cls-5" d="m85.24,138.33c1-3.39,1.18-7.03.52-10.51"/>
                  <path class="cls-5" d="m86.54,137.77c2.26-2.39,3.56-5.67,3.43-8.78,1.51,1.36,1.65,3.79.83,5.65s-2.39,3.28-3.97,4.56"/>
                  <path class="cls-5" d="m138.93,138.63c-6.58.84-12.84,4.01-17.4,8.83"/>
                  <path class="cls-5" d="m142.36,140.39c-2.84.16-5.63,1.06-8.02,2.58-.89.57-1.81,1.24-2.87,1.27-1.34.03-2.45-.99-3.4-1.94"/>
                  <path class="cls-5" d="m159.37,158.34c-13.28,12.71-31.71,18.1-49.02,24.29-19.97,7.14-39.73,16.1-58.32,26.31"/>
                  <path class="cls-5" d="m157.12,154.26c-1.68.92-3.29,2.1-4.25,3.75-.96,1.65-1.16,3.86-.09,5.44"/>
                  <path class="cls-5" d="m156,153.29c-2.02,1.13-3.92,2.64-4.92,4.72s-.87,4.83.78,6.44"/>
                  <path class="cls-5" d="m47.3,199.82c3.07,3.19,4.94,7.51,5.16,11.93"/>
                  <path class="cls-5" d="m62.99,173.95c5.4,1.15,11.21.23,15.98-2.55"/>
                </g>
              </g>
            </g>
          </g>
          <g>
            <path class="cls-8" d="m169.3,142.08c1.47-4.15,2.44-7.1,7.21-10.08,7.89-1.7,17.64-2.98,25.42-2.24,3.2.83,5.7,3.72,7.06,7,1.36,3.27,1.73,6.92,1.98,10.5,1.29,18.64.95,36.99-3.07,54.33-5.98,3.05-13.83,6.64-19.82,4.89-5.71-21.34-11.41-42.68-18.78-64.4Z"/>
            <path class="cls-10" d="m162.79,205.18c-1.54-18.83-3.04-38.05,1.5-56.39,1.16-4.69,2.81-9.44,6.13-12.96,3.32-3.51,8.68-5.48,13.14-3.62,5.51,2.3,7.46,9,8.41,14.9,3.26,20.06,2.85,40.71-.88,60.21-9.39-1.22-18.78-2.44-28.3-2.14Z"/>
          </g>
        </g>
      </g>
    </g>
  </g>
</svg>