<?xml version="1.0" encoding="UTF-8"?>
<svg id="Layer_2" data-name="Layer 2" xmlns="http://www.w3.org/2000/svg" xmlns:xlink="http://www.w3.org/1999/xlink" viewBox="0 0 4517.05 3097.63">
  <defs>
    <style>
      .cls-1 {
        fill: none;
      }

      .cls-2 {
        clip-path: url(#clippath);
      }

      .cls-3 {
        fill: #066;
      }

      .cls-4 {
        fill: #ed7447;
      }

      .cls-5 {
        fill: #eaeaea;
      }

      .cls-6 {
        fill: #fff;
      }

      .cls-7 {
        fill: #f4ebdc;
      }

      .cls-8 {
        fill: #ff8f67;
      }

      .cls-9 {
        fill: #753126;
      }

      .cls-10 {
        fill: #c7c7c7;
      }

      .cls-11 {
        fill: #e05536;
      }

      .cls-12 {
        fill: #e03b1f;
      }

      .cls-13 {
        fill: #d35e39;
      }

      .cls-14 {
        fill: #1e1e1e;
      }

      .cls-15 {
        fill: #433a55;
      }

      .cls-16 {
        fill: #3e9d8b;
      }

      .cls-17 {
        fill: #1d50bd;
      }

      .cls-18 {
        fill: #1c213f;
      }

      .cls-19 {
        fill: #1a1b38;
      }

      .cls-20 {
        fill: #2b3058;
      }

      .cls-21 {
        fill: #4a4063;
      }

      .cls-22 {
        fill: #5a4e74;
      }

      .cls-23 {
        fill: #5e231d;
      }
    </style>
    <clipPath id="clippath">
      <path class="cls-1" d="m2072.1,166.68s-62.07,64.09-57.17,163.59c4.9,99.5-9.8,182.14,98.01,180.45,0,0,11.43,65.77-53.91,99.5,0,0,73.76,134.91,229.83,0,0,0-64.85-70.84-37.08-166.97,0,0,93.11-101.19,17.97-215.87-75.14-114.68-197.65-60.71-197.65-60.71Z"/>
    </clipPath>
  </defs>
  <g id="illustration">
    <g>
      <path class="cls-4" d="m2676.52,1021.7s97.29-16.04,129.36-44.9c32.07-28.87,153.95-86.6,165.71-81.25s-4.28,19.24-10.69,20.31c-6.41,1.07-61.3,29.93-49.18,36.35,12.12,6.41,143.97-24.95,148.25-17.82,4.28,7.13,2.85,11.4-17.82,14.25-20.67,2.85-57.02,15.68-57.02,17.82s.71,7.13,9.98,5.7c9.27-1.43,89.09-12.12,90.52-6.41,1.43,5.7,4.99,14.25-12.12,15.68-17.11,1.43-84.1,2.85-83.39,9.27.71,6.41-1.43,4.99,7.13,5.7,8.55.71,78.4-2.85,80.54-.71s9.27,12.83-7.84,14.97c-17.11,2.14-86.24-1.43-86.24,4.28s3.56,6.41,8.55,6.77c4.99.36,74.12-1.07,77.69,3.21,3.56,4.28,4.28,14.25-9.98,14.25s-115.46,5.7-140.41,16.39c-24.95,10.69-85.35,55.42-123.84,101.92-38.49,46.51-110.65,100.5-194.04,126.15,0,0-21.38-141.12,74.84-261.93Z"/>
      <g>
        <path class="cls-4" d="m1681.78,964.79s-150.65-4.27-227.58-58.76c0,0-64.82-79.78-120.38-86.9,0,0-14.25,5.7,0,17.81s52,33.48,46.3,39.18c-5.7,5.7-40.44-6.41-52.63-13.53-12.19-7.12-56.35-39.18-60.62-35.61-4.27,3.56-12.82,14.25-2.85,19.94,9.97,5.7,60.55,33.48,58.41,39.89s-5.7,5.7-14.25.71-59.83-32.77-66.96-32.05c-7.12.71-9.26,10.68-4.99,14.25,4.27,3.56,64.11,34.9,64.11,40.6s-4.81,3.74-5.08,2.94c-.27-.8-46.48-23.24-49.95-22.7-3.47.53-9.35,6.41-5.61,11.22,3.74,4.81,52.09,30.72,51.82,34.19-.27,3.47-1.34,4.01-4.27,3.47-2.94-.53-39.62-20.21-41.76-18.79s-8.19,6.41-5.7,10.68c2.49,4.27,60.55,51.11,91,55.92,30.45,4.81,63.04,13.89,81.2,34.19,18.16,20.3,180.03,176.29,279.4,195.52,0,0,11.75-192.32-9.62-252.15Z"/>
        <g>
          <g>
            <path class="cls-4" d="m2072.1,166.68s-73.39,63.78-68.49,163.28c4.9,99.5,1.51,182.44,109.32,180.75,0,0,11.43,65.77-53.91,99.5,0,0,74.62,135.77,228.68-1.18,0,0-63.7-69.65-35.93-165.78,0,0,93.11-101.19,17.97-215.87-75.14-114.68-197.65-60.71-197.65-60.71Z"/>
            <ellipse class="cls-20" cx="2143.13" cy="343.37" rx="14.7" ry="15.18"/>
            <ellipse class="cls-20" cx="2043.74" cy="341.75" rx="14.7" ry="15.18"/>
            <path class="cls-13" d="m2087.29,335.86s33.45,52.63,25.97,62.02c-7.48,9.39-24.23,12.74-42.34,4.92l13.37-61.33s.45-4.61,3.01-5.62Z"/>
            <path class="cls-20" d="m2175.21,299.96c1.66-2.89.18-7.03-1.23-9.28-3.8-6.07-12.11-6.4-20.83-6.75-9.17-.36-19.12-.75-22.46,5.48-1.4,2.61-1.7,6.49,0,9.28,2.09,3.43,6.13,3.45,23.69,3.79,15.18.3,19.13.42,20.83-2.53Z"/>
            <path class="cls-20" d="m2069.88,298.12c1.66-2.89.18-7.03-1.23-9.28-3.8-6.07-12.11-6.4-20.83-6.75-9.17-.36-19.12-.75-22.46,5.48-1.4,2.61-1.7,6.49,0,9.28,2.09,3.43,6.13,3.45,23.69,3.79,15.18.3,19.13.42,20.83-2.53Z"/>
            <g class="cls-2">
              <path class="cls-13" d="m2112.94,510.72s47.37-8.99,82.22-39.35c0,0-15.25,88.82-109.99,107.93l27.77-68.58Z"/>
            </g>
            <path class="cls-6" d="m2099.38,476.57c30.66-3.96,43.21-27.87,46.83-36.63h-93.91c3.19,10.08,15.54,40.7,47.08,36.63Z"/>
            <path class="cls-20" d="m2230.83,138.64s66.47-21.64,41.73-100.47c-2.2-7-4.98-13-8.2-18.12-30.91-35.02-87.82-20.09-99.55,13.49-16.56,47.38,5.74,81.91,5.74,81.91,0,0-160.75-3.09-213.31,187.03-51.91,187.79,53.32,255.13,154.21,241.85,3.01-12.45,3.1-27.02,1.5-33.69-10.91.82-74.8,1.5-95.43-65.96-26.35-86.18-11.63-226.47,48.39-262.58,88.59-53.29,153.63,69.65,153.63,140.75,0,0,32.66-19.32,42.78,3.91,10.56,24.24-7.59,52.44-40.77,66.91,0,0,11.51,98.94,26.97,132.95,0,0,158.52-13.93,184.79-91.21,26.28-77.29-72.65-250.41-202.49-296.78Z"/>
          </g>
          <g>
            <path class="cls-4" d="m2529.67,2830.11l142.59,11.46,50.27,118.37s134.29,94.19,150.83,96.74c16.55,2.55,72.55-6.36,62.37,35.64h-391.19s14.43-95.46,50.07-131.1l-64.94-131.1Z"/>
            <path class="cls-14" d="m2932.62,3069.41h-59.69v-12.82c-2.76-.59-8.13-3.22-15.27-7.26v20.08h-221.64c-.16-14.73-2.78-58.72-26.77-94.19h135.27c-1.56-26.09-18.43-28-18.43-28h-142.4l7.01,14c-35.64,35.64-46.16,131.1-46.16,131.1h391.19c2.54-10.49.96-17.8-3.11-22.91Z"/>
          </g>
          <g>
            <path class="cls-4" d="m1936.63,2828.32l142.59,11.46,50.27,118.37s134.29,94.19,150.83,96.74,72.55-6.36,62.37,35.64h-391.19s14.43-95.46,50.07-131.1l-64.94-131.1Z"/>
            <path class="cls-14" d="m2339.58,3067.62h-59.69v-12.82c-2.76-.59-8.13-3.22-15.27-7.26v20.08h-221.64c-.16-14.73-2.78-58.72-26.77-94.19h135.27c-1.56-26.09-18.43-28-18.43-28h-142.4l7.01,14c-35.64,35.64-46.16,131.1-46.16,131.1h391.19c2.54-10.49.96-17.8-3.11-22.91Z"/>
          </g>
          <g>
            <path class="cls-7" d="m1999.39,596.27s78.17-6.74,91.21-8.61c0,0,30.64,71.33,89.15,65.2,73.9-7.74,85.95-77.76,85.95-77.76,0,0,44.81-5.55,59.7-3.05,14.89,2.5,94.66,23.43,96.52,81.93,1.86,58.5,5.59,658.37,29.81,723.57l-437.79,22.36s-1.16-676.25-14.55-745.18c0,0-12.69-38.67,0-58.46Z"/>
            <g>
              <path class="cls-15" d="m1937.56,1352.14s-69.22,1206.96-9.61,1497.58h316.7s20.78-844.2,28.24-938.02c0,0,153.86,800.16,206.03,938.02h353.96s-247.01-1281.48-314.08-1519.93l-581.24,22.36Z"/>
              <path class="cls-12" d="m1999.39,596.27s-150.9,14.9-178.84,42.85-39.12,46.57-59.61,115.5c-20.49,68.93-33.53,173.25-85.7,199.34,0,0,20.49,203.06,0,290.62,0,0,26.08,24.22,42.85,18.63,16.77-5.59,130.41-83.83,160.21-143.45,0,0,27.94,87.56-11.18,216.1-39.12,128.54-13.04,186.29-13.04,186.29,0,0,195.61,46.57,247.77,9.31,0,0,9.31-160.21-9.31-268.26-18.63-108.05-1.86-424.75-27.94-523.49-26.08-98.74-65.2-143.45-65.2-143.45Z"/>
              <path class="cls-12" d="m2325.4,572.05s5.59,221.69-20.49,350.23c-26.08,128.54-19.99,285.03,10.5,409.85,30.49,124.82,62.16,137.86,62.16,137.86,0,0,197.47-14.9,229.14-29.81,0,0-54.03-128.54-55.89-169.53,0,0,35.4,22.36,89.42,22.36,0,0,9.31-7.45,9.31-22.36s9.31-190.02,61.48-249.63c0,0-100.6-303.66-134.13-359.55-33.53-55.89-251.5-89.42-251.5-89.42Z"/>
            </g>
          </g>
          <g>
            <path class="cls-6" d="m2272.31,1851.28c-35.65-168.06-64.94-489.36-65.23-492.59l9.96-.9c.29,3.22,29.53,323.93,65.05,491.41l-9.78,2.08Z"/>
            <path class="cls-6" d="m2258.32,1705.9l-6.82-7.31,50.88-47.45c4.17-3.89,6.21-9.58,5.46-15.23-10.27-77.51-35.35-275.05-35.6-277.03l9.92-1.26c.25,1.99,25.33,199.5,35.6,276.98,1.17,8.85-2.02,17.76-8.55,23.85l-50.88,47.45Z"/>
          </g>
        </g>
        <path class="cls-6" d="m2546.38,1272.97c-.6-1.16-14.88-28.9-28.11-80.31-12.16-47.28-25.59-124.28-20.47-222.63l9.99.52c-5.04,96.89,8.13,172.69,20.07,219.22,12.94,50.43,27.25,78.3,27.4,78.57l-8.87,4.61Z"/>
      </g>
      <g>
        <path class="cls-10" d="m2527.18,1348.96h621.55c15.23,0,29.1,12.35,30.98,27.57l51.01,413.02h191.9c5.73,0,10.38,4.65,10.38,10.38v18.68c0,5.73-4.65,10.38-10.38,10.38h-210.57c-1.29.19-2.63.3-4,.3h-621.55c-15.23,0-29.1-12.35-30.98-27.57l-52.51-425.18c-1.88-15.23,8.94-27.57,24.17-27.57Z"/>
        <polygon class="cls-5" points="3195.46 1755.91 2586.54 1755.91 2541.89 1398.42 3149.9 1398.42 3195.46 1755.91"/>
      </g>
      <g>
        <g>
          <path class="cls-4" d="m3011.44,1750.52s-205.35-36.04-266.67,86.3l315.64,2.13,58.59-10.22v-113.31l-107.57,35.11Z"/>
          <path class="cls-20" d="m2790.06,1834.41c-.36,0-.73-.08-1.08-.25-1.24-.6-1.76-2.09-1.16-3.34.58-1.2,14.54-29.55,46.47-47.49,1.2-.67,2.73-.25,3.4.96.68,1.2.25,2.73-.96,3.4-30.57,17.18-44.28,45.03-44.42,45.31-.43.89-1.32,1.41-2.25,1.41Z"/>
          <path class="cls-20" d="m2871.02,1840.99c-15.3,0-29.25-1.85-36.56-7.42-3.56-2.71-5.52-6.16-5.81-10.25-.52-7.34,9.49-9.81,21.08-12.67,10.75-2.66,22.93-5.67,23.99-12.18,5.9-36.22,63.11-37.63,65.54-37.67.02,0,.03,0,.04,0,1.36,0,2.47,1.09,2.5,2.46.02,1.38-1.07,2.52-2.46,2.54-.55.01-55.47,1.37-60.7,33.48-1.59,9.77-15.48,13.2-27.73,16.23-7.8,1.93-17.51,4.33-17.29,7.47.19,2.63,1.44,4.8,3.85,6.62,19.58,14.9,97.73-.61,98.52-.77,1.34-.28,2.67.6,2.94,1.96.27,1.35-.6,2.67-1.96,2.94-2.17.44-36.58,7.26-65.97,7.26Z"/>
        </g>
        <g>
          <polygon class="cls-4" points="3399.52 2726.52 3258.48 2962.03 3168.43 2959.05 3276.5 2725.29 3399.52 2726.52"/>
          <path class="cls-1" d="m3024.4,3039.22c3.46-.92,7.05-1.99,10.68-3.12-4.05,1.57-7.66,2.65-10.68,3.12Z"/>
          <path class="cls-18" d="m3024.4,3039.22c3.02-.47,6.62-1.55,10.68-3.12,69.69-21.78,126.01-80.54,138.65-88.28,15.34,9.28,73.22,16.42,84.71,9.18,1.08-.68,2.37-1.25,3.77-1.74,4.56,5.83,35.79,46.97,33.5,77.04-.27,3.57-.47,7.83-.61,12.51l-2.44,46.44-305.01,2.79c-3.45-17.16,4.69-49.77,36.77-54.81Z"/>
        </g>
        <g>
          <polygon class="cls-4" points="3154.27 2446.03 3013.22 2681.53 2923.17 2678.55 3031.25 2444.8 3154.27 2446.03"/>
          <path class="cls-1" d="m2779.15,2758.73c3.46-.92,7.05-1.99,10.68-3.12-4.05,1.57-7.66,2.65-10.68,3.12Z"/>
          <path class="cls-18" d="m2779.15,2758.73c3.02-.48,6.62-1.55,10.68-3.12,69.69-21.78,126.01-80.54,138.65-88.28,15.34,9.28,73.22,16.42,84.71,9.18,1.08-.68,2.37-1.25,3.77-1.74,4.56,5.83,35.79,46.97,33.5,77.04-.27,3.57-.47,7.83-.61,12.51l-2.44,46.44-305.01,2.79c-3.45-17.16,4.69-49.77,36.77-54.81Z"/>
        </g>
        <g>
          <g>
            <path class="cls-4" d="m4072.11,1232.75c-10.3-23.71-26.42-65.13-26.42-92.02,0,0,7.9-156.26-23.7-194.88-31.6-38.62-178.07-56.47-250.05-44.18,0,0,.37,90.7-8.66,108.26-9.03,17.56-37.12,35.99-30.97,44.77,6.14,8.78,26.34,10.53,26.34,10.53l-.88,20.19s-1.25,84.27,5.52,93.93c6.77,9.66,98.07,22.82,120.01,19.31l-.45,49.73c29.57,5.75,111.71,16.96,189.28-15.65Z"/>
            <path class="cls-1" d="m3794.72,919.2c.06,0,.1,0,.1,0-.03,0-.07,0-.1,0Z"/>
            <path class="cls-1" d="m3758.63,1065.24s-.21.46-.55,1.24c.38-.79.55-1.24.55-1.24Z"/>
            <path class="cls-1" d="m3768.36,1192.56c-.4-.1-.78-.24-1.16-.38.37.16.75.29,1.16.38Z"/>
            <path class="cls-20" d="m4101.87,861.58c-15.8-52.67-140.45-124.65-284.42-71.98,0,0-54.9,47.07-54.16,101.72,10.71,25.58,29.88,27.76,31.43,27.89.03,0,.07,0,.1,0,0,0,0,0,0,0h0c28.19,2.32,68.87,8.25,70.01,23.13,1.76,22.82,0,84.27,0,84.27,0,0-.64,11.72-2.38,26.5-.19,1.59-.39,3.22-.61,4.87-.53,3.29-1.64,8.27-3.85,11.84-4.24,6.08-13.14,16.16-26.01,17.03-42.22,2.86-73.37-21.61-73.37-21.61,0,0-5.34,24.89-4.28,47.41h0c.88,20.38,2.08,44.8,3.32,50.77,2.02,9.78,2.44,25.74,9.53,28.77.38.14.76.27,1.16.38,16.29,4.29,99.56,14.79,114.92,6.11,15.36-8.68,29.08-40.51,27.36-79.88s-22.48-78.64-21.22-92.17c0,0,0-47.4,28.09-43.89,28.09,3.51,33.36,57.94,19.31,87.78-14.05,29.85,7.5,61.45,7.5,61.45l101.35,8.78s24.58-100.07,43.89-129.92c19.31-29.85,28.09-96.56,12.29-149.23Z"/>
          </g>
          <path class="cls-6" d="m3753.77,1105.58s36.21,11.24,65.44-2.11c0,0,13,1.74,7.91,11.07-5.09,9.33-34.58,22.71-72.08,18.51l-1.27-27.48Z"/>
          <path class="cls-20" d="m3832.01,1005.89c-2.16,0-4.27-1.07-5.5-3.03-13.35-21.18-43.74-18.66-44.04-18.63-3.57.33-6.74-2.3-7.07-5.88-.33-3.57,2.3-6.74,5.88-7.07,1.58-.14,38.67-3.21,56.23,24.64,1.92,3.04,1,7.05-2.03,8.96-1.08.68-2.28,1-3.46,1Z"/>
          <circle class="cls-20" cx="3794.84" cy="1013.27" r="12.1" transform="translate(1941.01 4476.04) rotate(-76.79)"/>
        </g>
        <g>
          <path class="cls-23" d="m3332.89,2191.69l-139.68,683.52,264.49,71.32,222.89-686.5s-124.82-160.48-208.03-151.56c-83.21,8.92-139.68,83.21-139.68,83.21Z"/>
          <path class="cls-9" d="m3959.95,1974.75l-445.78-77.27s-89.16-26.75-175.34,38.63c-86.18,65.38-390.87,567.84-390.87,567.84l188.79,157.29,127.38-133.91s83.62-380.22,184.66-353.47c101.04,26.75,196.14,172.37,288.27,187.23,92.13,14.86,518.66,73.11,607.82-13.07,89.16-86.18,26.75-267.47,0-306.1-26.75-38.63-384.93-67.17-384.93-67.17Z"/>
          <path class="cls-17" d="m3802.44,2019.32s-56.47-163.45-77.27-228.83c0,0-266.01,87.27-435.95,80.07-169.85-7.2-202.28-3.3-202.28-3.3l9.18-162.09s162.48-57.32,348.22-101.9c0,0,153.05-309.07,408.63-359.59,0,0,205.06-32.69,249.64-23.77s94.9,46.04,159.07,179.3c77.27,160.48,139.77,634.61,115.87,636.34-106.71,7.73-575.09-16.22-575.09-16.22Z"/>
        </g>
        <path class="cls-6" d="m3727.56,1794.89l-4.77-8.79c.34-.19,34.66-19.02,73.12-55.52,35.36-33.55,81.58-89.36,101.02-164.7l9.68,2.5c-20.06,77.75-67.65,135.18-104.05,169.67-39.39,37.33-73.57,56.06-75,56.84Z"/>
      </g>
      <g>
        <g>
          <path class="cls-19" d="m3975.73,3093.66c-5.52,0-10-4.48-10-10v-594.36c0-5.52,4.48-10,10-10s10,4.48,10,10v594.36c0,5.52-4.48,10-10,10Z"/>
          <path class="cls-19" d="m4223.18,3093.66h-487.61c-5.52,0-10-4.48-10-10s4.48-10,10-10h487.61c5.52,0,10,4.48,10,10s-4.48,10-10,10Z"/>
        </g>
        <path class="cls-10" d="m3633.21,2470.09h0c.74-2.61,1.58-5.29,2.49-7.98h0s0-.02.01-.03c.57-1.68,1.16-3.37,1.78-5.05,7.34-17.58,27.55-41.13,27.55-41.14,36.76-38.42,152.85-171.72,152.85-171.72l114.69-562.82s7.28-65.5,31.54-72.78c24.26-7.28,505.27-29.11,522.25-14.56,16.98,14.56,36.39,29.11,29.11,72.78-7.28,43.67-145.56,769.02-145.56,769.02,0,0-4.85,33.96-36.39,43.67-28.16,8.67-565.08,23.13-681.41,15.77h0c-20.47-3.96-18.91-25.16-18.91-25.16Z"/>
      </g>
      <g>
        <polygon class="cls-4" points="913.52 2730.12 816.82 2965.62 901.53 2963.02 1036.54 2728.89 913.52 2730.12"/>
        <path class="cls-1" d="m1057.5,3042.82c-3.46-.92-7.05-1.99-10.68-3.12,4.05,1.57,7.66,2.65,10.68,3.12Z"/>
        <path class="cls-18" d="m1057.5,3042.82c-3.02-.47-6.63-1.55-10.68-3.12-69.69-21.78-126.01-80.54-138.65-88.28-15.34,9.28-73.22,16.42-84.71,9.18-1.08-.68-2.37-1.25-3.77-1.74-4.56,5.83-35.79,46.97-33.5,77.04.27,3.57.47,7.83.61,12.51l2.44,46.44,305.01,2.79c3.45-17.16-4.69-49.77-36.77-54.81Z"/>
      </g>
      <g>
        <polygon class="cls-4" points="1340.75 2722.92 1244.06 2958.43 1328.76 2955.82 1463.77 2721.69 1340.75 2722.92"/>
        <path class="cls-1" d="m1484.74,3035.62c-3.46-.92-7.05-1.99-10.68-3.12,4.05,1.57,7.66,2.65,10.68,3.12Z"/>
        <path class="cls-18" d="m1484.74,3035.62c-3.02-.48-6.62-1.55-10.68-3.12-69.69-21.78-126.01-80.54-138.65-88.28-15.34,9.28-73.22,16.42-84.71,9.18-1.08-.68-2.37-1.25-3.77-1.74-4.56,5.83-35.79,46.97-33.5,77.04.27,3.57.47,7.83.61,12.51l2.44,46.44,305.01,2.79c3.45-17.16-4.69-49.77-36.77-54.81Z"/>
      </g>
      <g>
        <path class="cls-4" d="m845.76,1225.42c10.3-23.71,26.42-65.13,26.42-92.02,0,0-7.9-156.26,23.7-194.88,31.6-38.62,178.07-56.47,250.05-44.18,0,0-.37,90.7,8.66,108.26,9.03,17.56,37.12,35.99,30.97,44.77-6.14,8.78-26.34,10.53-26.34,10.53l.88,20.19s1.25,84.27-5.52,93.93c-6.77,9.66-98.07,22.82-120.01,19.31l.45,49.73c-29.57,5.75-111.71,16.96-189.28-15.65Z"/>
        <path class="cls-1" d="m1123.15,911.88c-.06,0-.1,0-.1,0,.03,0,.07,0,.1,0Z"/>
        <path class="cls-20" d="m816,854.25c15.8-52.67,140.45-124.65,284.42-71.98,0,0,54.9,47.07,54.16,101.72-10.71,25.58-29.88,27.76-31.43,27.89-.03,0-.07,0-.1,0,0,0,0,0,0,0h0c-28.19,2.32-68.87,8.25-70.01,23.13-1.76,22.82,0,84.27,0,84.27h-24.58s0-47.4-28.09-43.89c-28.09,3.51-33.36,57.94-19.31,87.78,14.05,29.85-7.5,61.45-7.5,61.45l-101.35,8.78s-24.58-100.07-43.89-129.92c-19.31-29.85-28.09-96.56-12.29-149.23Z"/>
      </g>
      <g>
        <path class="cls-10" d="m1665.42,1350.25h-621.55c-15.23,0-29.1,12.35-30.98,27.57l-51.01,413.02h-191.9c-5.73,0-10.38,4.65-10.38,10.38v18.68c0,5.73,4.65,10.38,10.38,10.38h210.57c1.29.19,2.63.3,4,.3h621.55c15.23,0,29.1-12.35,30.98-27.57l52.51-425.18c1.88-15.23-8.94-27.57-24.17-27.57Z"/>
        <polygon class="cls-5" points="997.15 1757.2 1606.07 1757.2 1650.71 1399.72 1042.71 1399.72 997.15 1757.2"/>
      </g>
      <path class="cls-11" d="m1034.58,1211.32s199.27,31.74,260.73,102.9c61.46,71.16,307.29,297.58,446.37,336.4,139.09,38.82,245.83,61.46,245.83,61.46,0,0,16.17,84.1,0,122.91h-520.77s-171.43-58.22-203.78-100.27c0,0,19.44,192.11,12.94,278.17-7.73,102.24-38.81,304.05-38.81,304.05h-695.44v-559.58s6.47-378.45,77.63-469.01c71.16-90.57,236.82-89.61,236.82-89.61,0,0,42.63,86.98,178.48,12.59Z"/>
      <path class="cls-22" d="m1256.56,2134.29s307.23,9.59,428.52,21.72c121.3,12.13,135.85,128.57,118.87,172.24-16.98,43.67-278.98,550.69-344.48,623.47l-225.61-48.52s143.13-339.63,194.08-439.09h-846.65s-36.39-213.48,0-271.71c36.39-58.22,297.92-75.57,675.28-58.11Z"/>
      <polygon class="cls-21" points="1268.18 2453.32 1035.29 2936.09 787.84 2921.53 962.51 2463.03 1268.18 2453.32"/>
      <path class="cls-8" d="m1994.07,1709.86h47.31s41.24-48.52,78.84-48.52,108.77,0,116.58,21.24c5.87,15.98-16.97,22.16-16.97,22.16,0,0,40.03-5.26,42.65,16.98,2.25,19.05-22.17,22.1-22.17,22.1,0,0,20.77-2.51,20.36,19.55-.4,21.83-31.13,18.33-31.13,18.33,0,0,26.04,3.06,11.98,28.84-7.13,13.08-43.67,0-43.67,0,0,0,30.32,14.56,14.56,24.26-15.77,9.7-218.33,0-218.33,0v-124.94Z"/>
      <path class="cls-6" d="m1160.2,1097.05s-35.83,12.4-65.48,0c0,0-12.94,2.15-7.55,11.32,5.39,9.16,35.3,21.59,72.64,16.18l.39-27.5Z"/>
      <path class="cls-20" d="m1085.86,998.56c-1.18,0-2.38-.32-3.46-1-3.04-1.91-3.95-5.93-2.03-8.96,17.56-27.85,54.66-24.79,56.23-24.64,3.58.33,6.21,3.49,5.88,7.07-.33,3.57-3.48,6.2-7.05,5.88-.42-.04-30.81-2.38-44.06,18.63-1.24,1.96-3.35,3.03-5.5,3.03Z"/>
      <circle class="cls-20" cx="1123.03" cy="1005.94" r="12.1"/>
      <path class="cls-6" d="m1258.82,1737.5c-.72-1.08-17.94-26.8-36.21-67.06-16.89-37.2-37.73-94.15-41.15-154.24l9.98-.57c6.39,112.16,74.99,215.25,75.68,216.28l-8.3,5.58Z"/>
      <path class="cls-20" d="m2167.76,1712.3c-2.76,0-5-2.24-5-5s2.24-5,5-5c8.92,0,55.33-2.53,55.79-2.55,2.76-.13,5.11,1.96,5.27,4.72.15,2.76-1.96,5.11-4.72,5.27-1.92.1-47.14,2.57-56.34,2.57Z"/>
      <path class="cls-20" d="m2214.19,1749c-7.25,0-14.15-.04-18.55-.18-2.76-.09-4.93-2.39-4.84-5.15.09-2.76,2.39-4.91,5.15-4.84,12.69.39,47.94,0,48.3,0,.02,0,.04,0,.06,0,2.74,0,4.97,2.2,5,4.94.03,2.76-2.18,5.02-4.94,5.06-.96.01-16.19.18-30.16.18Z"/>
      <path class="cls-20" d="m2233.53,1786.7h-39.89c-2.76,0-5-2.24-5-5s2.24-5,5-5h39.89c2.76,0,5,2.24,5,5s-2.24,5-5,5Z"/>
      <path class="cls-20" d="m2201.85,1815.54c-.19,0-.38-.01-.58-.03l-21.15-2.42c-2.74-.31-4.71-2.79-4.4-5.54.31-2.74,2.79-4.71,5.54-4.4l21.15,2.42c2.74.31,4.71,2.79,4.4,5.54-.29,2.55-2.45,4.43-4.96,4.43Z"/>
      <path class="cls-6" d="m946.15,1275.9c-112.75-1.24-130.19-54.65-130.88-56.92l9.57-2.89-4.79,1.45,4.78-1.48c.04.12,4.03,12.19,20.67,24.27,15.61,11.34,45.76,24.98,100.76,25.58l-.11,10Z"/>
      <path class="cls-6" d="m1428.72,2469.05l-1.58-9.88c1.13-.18,114.4-19.08,223.62-101.4l6.02,7.99c-58.15,43.83-116.99,69.56-156.1,83.43-42.45,15.05-70.77,19.67-71.95,19.86Z"/>
      <path class="cls-6" d="m1586.08,2427.05c-17.67,0-27.42-2.74-28.21-2.97l2.8-9.6c.37.11,37.87,10.4,101.98-11.75l3.26,9.45c-34.42,11.89-61.43,14.87-79.84,14.87Z"/>
      <g>
        <path class="cls-19" d="m861.73,3090.06c-5.52,0-10-4.48-10-10v-594.36c0-5.52,4.48-10,10-10s10,4.48,10,10v594.36c0,5.52-4.48,10-10,10Z"/>
        <path class="cls-19" d="m1109.18,3090.06h-487.61c-5.52,0-10-4.48-10-10s4.48-10,10-10h487.61c5.52,0,10,4.48,10,10s-4.48,10-10,10Z"/>
        <path class="cls-10" d="m371.16,1761.83s-25.88-64.69,0-84.1c25.88-19.41,459.31-16.17,504.6-16.17s58.22,19.41,77.63,77.63c19.41,58.22,184.37,701.9,184.37,701.9h297.58v48.52s-255.53,38.82-300.82,38.82h-533.71s-32.35-3.23-38.82-19.41c-6.47-16.17-190.84-747.19-190.84-747.19Z"/>
      </g>
      <g>
        <g>
          <path class="cls-16" d="m358.57,1522.84c61.27-71.99,81.18-114.88,114.88-177.69,33.7-62.8,93.44-44.42,81.18,4.6-12.25,49.02-4.6,189.94-21.44,315.55-11.02,82.17-64,106.65-99.32,113.76-5.16.12-36.69.49-53.07-8.32-91.26-57.12-79.5-180.61-22.23-247.9Z"/>
          <path class="cls-16" d="m497.29,2118.77s-.02-.01-.02-.01c29.94-32.59,81.43-64.71,134.37-50.46,79.65,21.44,111.82-35.23,194.54,7.66,63.88,33.12,30.01,108.25-10.6,135.12-16.47,7.71-33.92,7.97-42.51,7.5-48.04-6.87-122.96,31.67-181.26,54.99-53.37,21.35-99.76-27.03-110.84-39.86-20.83-28.36-7.39-71.93-.59-89.47,4.4-9.51,16.91-25.45,16.91-25.45Z"/>
          <path class="cls-16" d="m87.76,2263.36c38.29,35.23,142.46,81.18,202.2,119.48,41.6,26.67,40.12,71.15,35.38,95.71l-.06-.07s-4.15,15.36-9.28,24.67c-16.01,24.38-29.21,43.83-70.47,48.19-49.88,5.27-102.63-70.46-127.14-130.2-24.51-59.74-102.63-99.57-116.42-145.52-13.79-45.95,47.49-47.48,85.78-12.25Z"/>
          <path class="cls-16" d="m197.87,2214.15s41.36,52.08,116.42,7.66,47.49-166.96,0-223.64c-47.49-56.68-98.03-154.71-98.03-229.77s-36.76-197.6-122.54-157.77c-85.78,39.83-22.98,134.8,4.6,194.54,27.57,59.74,42.89,151.65,39.83,208.32-3.06,56.68,7.66,148.58,59.74,200.66Z"/>
          <path class="cls-16" d="m475.84,2608.68s61.8,53.36,103.83-12.15c42.03-65.51,45.74-121.14,79.11-170.59,33.38-49.44,18.54-127.32-35.85-111.25-54.39,16.07-56.86,81.58-85.29,108.78s-79.62,73.28-85.29,110.01c-4.59,29.75-5.27,48.53,23.49,75.19Z"/>
          <path class="cls-16" d="m495.36,1977.52s74.36,64.21,124.94-14.62c50.57-78.83,55.03-145.76,95.19-205.26,40.16-59.5,22.31-153.2-43.13-133.86-65.44,19.34-68.42,98.17-102.63,130.89-34.21,32.72-95.81,88.18-102.63,132.38-5.53,35.8-6.35,58.39,28.26,90.48Z"/>
          <path class="cls-3" d="m51.57,2307.96c.2-.51.58-.9,1.08-1.12.5-.22,1.05-.22,1.55-.02l26.38,10.39c-14.69-17.84-22.87-28.37-22.95-28.48-.33-.43-.48-.96-.41-1.5.07-.54.34-1.02.77-1.35.89-.68,2.16-.52,2.85.36.29.38,29.9,38.47,77.48,92.39v-61.56c0-1.12.91-2.03,2.03-2.03s2.03.91,2.03,2.03v66.16c38.63,43.57,77.32,84.22,114.99,120.83l-2.92-81.86c-.04-1.12.84-2.06,1.96-2.1.02,0,.04,0,.06,0,1.11,0,2,.85,2.04,1.96l3.06,85.78c0,.1-.01.19-.03.26,39.66,38.3,78.02,71.87,114.03,99.8-5.9-88.69-8.55-179.56-7.87-270.11-30.29-40.21-61.35-95.91-92.33-165.56l-91.83-65.81c-.91-.65-1.12-1.93-.47-2.84.32-.44.79-.73,1.32-.82.53-.09,1.07.04,1.51.35l86.23,61.8c-28.89-65.86-57.43-143.01-84.82-229.3-4.83-15.22-9.7-30.98-14.49-46.85l-33-30c-.4-.36-.64-.86-.66-1.41-.03-.54.16-1.06.53-1.46.75-.83,2.04-.89,2.87-.14l28,25.45c-34.28-114.64-54.13-201.85-54.32-202.72-.12-.53-.03-1.07.26-1.53.29-.46.74-.78,1.27-.9.53-.12,1.07-.03,1.53.26.46.29.78.74.9,1.27.07.29,6.64,29.09,18.49,74.56l22.43-60.27c.19-.51.57-.91,1.06-1.14.49-.23,1.05-.25,1.55-.06.51.19.91.57,1.14,1.06.23.49.25,1.05.06,1.55l-24.44,65.69c11.3,42.99,23.39,85.92,35.94,127.6.36.43.53.97.46,1.53,4.73,15.68,9.55,31.25,14.32,46.29,11.1,34.97,22.59,69,34.15,101.17l4.18-101.82c.02-.55.25-1.05.65-1.42.4-.36.91-.55,1.46-.53.54.02,1.04.25,1.41.65.37.4.56.92.54,1.46l-4.59,111.74c46.32,127.11,93,223.12,138.75,285.38.38-40.6,1.38-81,2.98-120.1,6.07-147.94,20.79-297.2,43.76-443.62,2.87-18.27,5.92-36.83,9.07-55.16l-37.64-92.57c-.42-1.04.08-2.23,1.12-2.65.5-.2,1.05-.2,1.55,0,.5.21.89.6,1.09,1.11l35.19,86.54c4.78-27.45,9.91-55,15.23-81.89-.02-.36.05-.7.2-1.02,7.99-40.31,16.6-80.06,25.59-118.17l-20.29-49.7c-.21-.5-.2-1.06,0-1.56.21-.5.6-.89,1.1-1.09.5-.21,1.06-.2,1.55,0,.5.21.89.6,1.1,1.11l18.14,44.44c20.88-87.63,36.61-136.58,36.77-137.06.34-1.07,1.49-1.66,2.56-1.31,1.07.34,1.65,1.49,1.31,2.56-.07.2-6.74,21.05-16.91,58.72l24.28-23.65c.39-.38.9-.58,1.44-.58.54,0,1.05.23,1.43.61.78.8.76,2.09-.04,2.87l-29.18,28.42c-10.72,40.24-26.98,105.65-43.66,189.08l67.68-66.73c.38-.38.89-.59,1.43-.59h.02c.54,0,1.05.22,1.43.61.38.39.59.9.59,1.44,0,.54-.22,1.05-.6,1.43l-71.94,70.93c-9.37,47.34-17.98,95.95-25.59,144.48-14.72,93.86-26.17,190.61-34.01,287.57,50.22-24.62,99.05-64.31,145.14-117.99v-86.79c0-1.12.91-2.03,2.03-2.03s2.03.91,2.03,2.03v82.04c27.72-32.88,54.18-70.52,78.64-111.86.7-1.18,1.39-2.35,2.07-3.52l-8.06-58.43c-.15-1.11.63-2.14,1.74-2.29,1.11-.15,2.14.63,2.29,1.74l7.35,53.29c27.09-46.92,46.83-89.93,58.64-117.81l-5.2-25.6c-.11-.53,0-1.07.3-1.53.3-.45.76-.76,1.29-.87,1.1-.22,2.17.49,2.4,1.59l4.01,19.75c7.71-18.59,11.64-29.73,11.68-29.84.37-1.06,1.53-1.62,2.59-1.25,1.06.37,1.62,1.53,1.25,2.59-.05.13-4.75,13.51-14.16,35.78-.04.4-.2.78-.46,1.09-8.75,20.64-18.42,41.57-28.76,62.24l32.18-16.96c.99-.52,2.22-.14,2.74.85.52.99.14,2.22-.85,2.75l-37.23,19.62c-9.47,18.63-19.45,36.93-29.66,54.39-.08.27-.23.53-.44.75-.72,1.23-1.44,2.46-2.17,3.7-11.65,19.69-23.97,38.86-36.63,57l55.96-22.02c.51-.2,1.06-.19,1.55.03.5.22.88.61,1.08,1.12.41,1.04-.1,2.22-1.15,2.63l-61.7,24.28c-13.36,18.79-27.3,36.69-41.43,53.21-.18.55-.56,1-1.06,1.23-47.1,54.8-97.03,95.12-148.41,119.84-4.58,57.42-7.92,115.59-9.95,172.9,37.6-.28,87.85-8.38,149.38-24.06l37.67-82.47c.23-.49.63-.87,1.14-1.06.51-.19,1.06-.17,1.55.06,1.02.47,1.47,1.67,1,2.69l-36.31,79.48c35.69-9.24,75.15-21,117.31-34.96l23.47-44.9c.25-.48.68-.83,1.19-1,.52-.16,1.07-.11,1.55.14.99.52,1.38,1.75.86,2.74l-21.52,41.17c47.62-15.9,89.59-31.56,116.48-41.93l24.27-37.17c.61-.94,1.87-1.2,2.81-.59.94.61,1.2,1.87.59,2.81l-21.18,32.43c20.02-7.78,31.8-12.65,31.91-12.7,1.04-.42,2.23.07,2.66,1.1.43,1.03-.06,2.23-1.1,2.66-.36.15-36.79,15.18-89.39,34.29l40.87,5.22c1.11.14,1.9,1.16,1.76,2.27-.14,1.1-1.14,1.9-2.27,1.76l-48-6.13c-.2-.03-.38-.09-.54-.17-47.49,17.08-92.69,31.91-134.36,44.07l80.01,20.53c1.09.28,1.74,1.39,1.46,2.47-.23.9-1.04,1.53-1.97,1.53-.17,0-.34-.02-.51-.06l-86.54-22.21s-.08-.03-.11-.04c-82.34,23.62-147.71,35.77-194.3,36.09-5.2,151.98-1.3,302.73,11.59,448.11,39.94-19.51,78.81-50.87,115.54-93.21-.02-.06-.03-.13-.03-.22v-70.87c0-1.12.91-2.03,2.03-2.03s2.03.91,2.03,2.03v66.4c22.73-26.81,44.41-57.56,64.45-91.42l.23-.39-6.54-47.4c-.15-1.11.63-2.14,1.73-2.29.54-.08,1.07.07,1.5.39.43.33.72.81.79,1.34l5.83,42.28c21.87-37.71,37.86-72.35,47.44-94.84l-4.31-21.26c-.11-.53,0-1.07.3-1.53.3-.45.76-.76,1.29-.87.53-.11,1.07,0,1.52.3.45.3.76.76.87,1.29l3.13,15.42c6.25-15.04,9.51-24.27,9.54-24.35.37-1.06,1.53-1.61,2.59-1.25.51.18.92.55,1.16,1.04.24.49.27,1.04.09,1.55-.12.34-12.32,34.77-35.47,80.91l24.93-13.14c.99-.52,2.22-.14,2.74.85.52.99.14,2.22-.85,2.74l-30,15.81c-8,15.63-16.4,30.9-24.98,45.4-9.43,15.93-19.4,31.45-29.66,46.14l44.84-17.64c.5-.2,1.06-.19,1.56.03.5.22.88.61,1.08,1.12.2.5.19,1.06-.03,1.55s-.61.88-1.12,1.08l-50.27,19.78c-.1.04-.19.05-.27.06-47.49,66.48-99.06,113.43-153.3,139.54,2.01,22.38,4.22,44.53,6.56,65.84.12,1.11-.69,2.12-1.8,2.24-.07,0-.15.01-.22.01-1.04,0-1.9-.78-2.02-1.81-5.09-46.35-9.34-94.34-12.62-142.64-54.42-41.89-113.45-96.04-175.45-160.92-.1,0-.2-.02-.3-.04l-50.04-11.23c-.53-.12-.98-.44-1.27-.89-.29-.46-.39-1-.27-1.53.12-.53.44-.98.9-1.27.46-.29,1-.38,1.53-.26l44.43,9.97c-46.78-49.27-85.36-94.29-109.54-123.44l-33.22-13.09c-.51-.2-.9-.58-1.12-1.08-.22-.5-.23-1.05-.03-1.56Z"/>
        </g>
        <rect class="cls-20" x="203.57" y="2728.89" width="361.54" height="361.54" transform="translate(768.67 5819.33) rotate(180)"/>
      </g>
      <polygon class="cls-19" points="1348.12 1828.69 1348.12 1877.5 1583.57 1877.5 1583.57 3094.58 1611.89 3094.58 1611.89 1877.5 3230.81 1877.5 3230.81 3094.58 3259.14 3094.58 3259.14 1877.5 3499.28 1877.5 3499.28 1828.69 1348.12 1828.69"/>
    </g>
  </g>
</svg>