<?xml version="1.0" encoding="UTF-8"?>
<svg id="Layer_2" data-name="Layer 2" xmlns="http://www.w3.org/2000/svg" viewBox="0 0 1556.6 1330.63">
  <defs>
    <style>
      .cls-1, .cls-2 {
        fill: #ffddc0;
      }

      .cls-3, .cls-4 {
        fill: #fff;
      }

      .cls-5 {
        fill: #bddce5;
      }

      .cls-6 {
        fill: #606060;
      }

      .cls-4, .cls-2, .cls-7, .cls-8 {
        fill-rule: evenodd;
      }

      .cls-7 {
        fill: #ffce7e;
      }
    </style>
  </defs>
  <g id="_Layer_" data-name="&amp;lt;Layer&amp;gt;">
    <g>
      <path class="cls-7" d="m583.26,93.15l97.2.13s3.46-9.64,37.67,10.6c15.67,9.64,32.81,31.05,44.36,47.9,15.52,21.85,32.23,73.17,61.78,97.04,1.93,17.71,36.61,29.16,64.35,113.4,19.54,59.35-5.54,139.26-5.54,139.26l-98.85,76.25-39.58-172.4s-100.2,216.28-111.61,215.91c-20.16-.59-202.03,321.9-217.11,301.66-23.47-31.86-95.1,5.42-95.1,5.42,0,0-140.74,92.79-208.43,62.04C-21.72,929.44,14.9,807.8,7.99,794.57c9.2-179.08,215.01-360.01,217-390.99,2.21-30.17,182.41-192.73,197.72-219.52,17.66-30.9,160.56-90.91,160.56-90.91Z"/>
      <path class="cls-3" d="m434.84,1090.51l18.73,162.46-16.44,8.45s-17.4-26.04-42.03-31.31c-24.62-5.27-88.51-3.82-94.41-48.19-5.9-44.37,67.68-98.98,134.15-91.4Z"/>
      <path class="cls-3" d="m929.92,1304.79c28.91-159.75,34.98-279.52,27.42-412.74l-78.69-200.94,143.16-97.77c-22.14-55.26-57.59-77.97-96.82-91.41l-123.34,28.99-277.47,81.57-99.07,252.46s-97.48,187.48-124.98,303.46c0,0,13.9-61.08,134.23-40.95,25.72,4.3,59.54,12.91,97.3,33.94,43.32,24.13,92.03,62.29,143.31,89.63,79.63,42.46,254.96,53.77,254.96,53.77Z"/>
      <path class="cls-1" d="m1003.98,939.54s-98.98-97.11-107.48-121.62c-8.5-24.51-17.85-126.81-17.85-126.81l40.89-42.54,90.65-41.12-6.21,332.1Z"/>
      <path d="m882.02,755.88c-1.06,0-2.14-.31-3.08-.96-.74-.51-18.15-12.73-19.5-36.28-.69-12.15,16.55-34.79,32.92-51.93,29.79-31.19,75.2-64.36,113.62-64.36.25,0,.49,0,.73,0,3.01.03,5.43,2.5,5.39,5.51-.03,2.99-2.47,5.39-5.45,5.39-.19.02-.47,0-.7,0-34.97,0-77.48,31.43-105.71,60.99-21.09,22.09-30.19,38.9-29.91,43.78,1.04,18.27,14.64,27.81,14.78,27.91,2.48,1.7,3.12,5.1,1.41,7.58-1.06,1.54-2.76,2.37-4.5,2.37Z"/>
      <path class="cls-1" d="m1009.23,653s-7.58-19.83-23.36-34.05c-25.33-22.82-61.19-17.84-69.88-1.54-8.69,16.3,16.15,51.61,27.58,104.59,9.58,44.36,34.41,117.26,42.29,143.95,26.4,89.39,26.53,166.39,79.06,215.94,52.59,49.61,209.93,70.09,292.41,10.06l143.71-180.74-10.26-107.02-21.69-222.75-459.87,71.56Z"/>
      <path class="cls-1" d="m1385.75,1049.74s-35.73,31.91-36.19,79.87c-.21,22.21,12.21,41.64,29.2,40.67,16.99-.97,84.29-80.16,112.16-125.42,18.04-29.3,33.98-87.75,32.25-110.26l-137.42,115.14Z"/>
      <path class="cls-6" d="m1394.81,964.69l-305.72,17.43c-33.64,1.92-62.46-23.79-64.37-57.43l-41.15-721.89c-1.92-33.63,23.79-62.46,57.43-64.37l305.72-17.43c33.64-1.92,62.46,23.79,64.38,57.43l41.15,721.89c1.92,33.64-23.8,62.46-57.43,64.37Z"/>
      <path class="cls-1" d="m756.77,549.87l37.31-15.97s-1.73,46.45-8.88,56.96c-7.16,10.51-28.43-40.99-28.43-40.99Z"/>
      <path class="cls-2" d="m547.62,403.41c10.16-20.16,15.01-50.18,15.75-63.42,2.72-25.09-1.76-63.87,1.48-93.45,1.4-10.81,3.53-15.74,20.38-27.29,17.66-11.77,79.4-18.17,93.45,1.48,23.1,33.7,41.64,63.43,41.64,63.43,0,0,16.55,12.88,30.98,21.12,20.82,12.58,33.92-3.16,33.92-3.16,0,0,27.15-5.66,34.14,16.78,3.97,14.57,10.81,30.1-2.06,46.65-12.07,16.33-25.02,19.86-25.02,19.86,0,0,3.23,27.81-2.14,52.76-5.38,24.94-28.45,59.16-28.45,59.16l26.28,84.2-28.78,57.54-51.78,44.62-96.76-73.03s-17.89-12.57-21.88-32.05c-4-19.48,12.77-50.78,12.77-50.78,0,0-18.32-9.79-33.99-28.99-15.67-19.21-26.56-43.19-26.56-43.19l-10.23-2.43c-.59,1.03,5.89-29.43,16.86-49.81Z"/>
      <path class="cls-1" d="m365.08,516.59c-33.67,16.35-94.25,80.24-107.44,136.34l188.85-61.92-33.44-48.81-47.97-25.61Z"/>
      <path d="m683.83,552.96c-13.33,0-33.72-2.06-59.84-10.91-32.24-10.75-47.14-27.43-56.05-37.4l-.56-.63c-14.41-15.51-26.64-37.72-36.96-57.31-1.4-2.67-.38-5.96,2.28-7.37,2.67-1.4,5.96-.38,7.37,2.28,10.73,20.37,22.44,41.14,35.37,55.05l.64.71c8.71,9.75,21.87,24.48,51.39,34.33,44.62,15.11,71.43,9.13,71.7,9.07,2.91-.69,5.86,1.12,6.56,4.05.7,2.92-1.1,5.85-4.02,6.56-.54.13-6.76,1.56-17.88,1.56Z"/>
      <path d="m701.23,551.33c-2.4,0-4.6-1.59-5.26-4.02-.79-2.9.91-5.89,3.8-6.69.42-.12,22.75-6.9,53.45-41.48,21.75-24.97,27.77-48.27,30.66-59.47,7.38-27.73,3.15-65.47,3.11-65.85-.34-2.99,1.8-5.7,4.79-6.04,2.98-.36,5.7,1.8,6.04,4.79.19,1.62,4.51,40.15-3.4,69.87-2.85,11.04-9.55,36.96-33.02,63.91-33.33,37.54-57.73,44.51-58.75,44.79-.48.13-.96.19-1.44.19Z"/>
      <path d="m618.89,603.34c-2.87,0-5.28-2.25-5.44-5.15-1.26-22.95-17.35-69.72-17.51-70.19-.98-2.85.53-5.95,3.37-6.94,2.85-.99,5.95.53,6.94,3.37.68,1.98,16.74,48.68,18.09,73.15.17,3.01-2.14,5.58-5.15,5.74-.1,0-.2,0-.3,0Z"/>
      <path d="m532.95,460.68c-2.39,0-4.56-1.6-5.22-4.03-.79-2.91.97-5.91,3.88-6.7,1.66-.45,2.99-.38,3.87-.33.16,0,.33.04.5.02,2.91-.79,5.85.93,6.64,3.84.79,2.91-.97,5.91-3.88,6.7-1.66.45-2.99.38-3.87.33-.16,0-.33-.04-.5-.02-.48.13-.96.19-1.43.19Z"/>
      <path d="m666.74,421.6c-.88,0-1.78-.21-2.61-.67-2.64-1.45-3.61-4.76-2.17-7.4,4.68-8.56,4.25-11.52,4.01-12.23-.45-1.31-3.22-2.5-6.15-3.76-4.9-2.1-11.62-4.99-15.63-12.14-9.2-15.45-5.29-43.38-3.18-51.94.72-2.92,3.66-4.72,6.6-3.99,2.92.72,4.71,3.67,3.99,6.6-2.45,9.99-4.38,33.12,2.03,43.88,2.27,4.04,6.26,5.76,10.49,7.57,4.75,2.04,10.13,4.35,12.16,10.22,1.81,5.23.34,11.71-4.75,21.02-.99,1.81-2.86,2.84-4.79,2.84Z"/>
      <g>
        <path class="cls-4" d="m670.86,447.2c-23.47,6.4-47.24,8.53-47.24,8.53,0,0,22.22,40.03,58.27,31.94,34.44-7.65,34-57.09,34-57.09,0,0-22.37,10.45-45.03,16.62Z"/>
        <path d="m672.12,494.23c-32.96,0-52.38-34.25-53.27-35.86-.89-1.61-.91-3.57-.05-5.2.86-1.63,2.49-2.71,4.33-2.88.23-.02,23.59-2.17,46.29-8.36,21.92-5.98,43.94-16.2,44.16-16.3,1.68-.78,3.64-.66,5.22.33,1.57.99,2.53,2.71,2.54,4.56.02,2.2.03,53.96-38.27,62.47-3.8.85-7.45,1.24-10.95,1.24Zm-38.93-34.11c7.84,10.19,24.82,27.32,47.5,22.23,21.59-4.79,27.51-29.72,29.13-43.15-8.67,3.66-22.96,9.29-37.53,13.26h0c-14.98,4.08-29.91,6.45-39.1,7.65Zm37.66-12.92h.03-.03Z"/>
      </g>
      <path d="m547.84,323.58c-1.21,0-2.43-.4-3.44-1.23-2.33-1.9-2.68-5.34-.78-7.67.64-.78,15.95-19.12,43.98-15.19,2.98.42,5.06,3.17,4.65,6.15-.42,2.98-3.19,5.07-6.15,4.65-22-3.06-33.9,11.14-34.02,11.29-1.08,1.32-2.65,2.01-4.23,2.01Z"/>
      <path d="m669.41,287.83c-1.55,0-3.09-.66-4.17-1.94-1.94-2.3-1.65-5.74.65-7.68,21.97-18.54,44.56-10.49,45.51-10.14,2.82,1.04,4.27,4.18,3.22,7.01-1.04,2.82-4.16,4.26-6.98,3.23-.79-.28-17.78-6.05-34.72,8.24-1.02.86-2.27,1.29-3.51,1.29Z"/>
      <path class="cls-8" d="m600.14,529.09s58.57,26.64,100.88,15.98c32.6-8.02,68.58-57.83,68.58-57.83,0,0-31.72,68.65-72.85,86.82-35.69,15.81-84.03-8.4-84.03-8.4l-12.58-36.57Z"/>
      <path d="m784.25,583.19c-2.15,0-4.19-1.29-5.05-3.4-17.32-42.65-19.99-83.91-20.1-85.64-.18-3.01,2.11-5.59,5.11-5.77,3.06-.2,5.59,2.11,5.78,5.11.03.41,2.69,41.28,19.31,82.2,1.13,2.79-.21,5.97-3,7.11-.67.27-1.37.4-2.05.4Z"/>
      <path d="m753.95,310.87c-.38,0-.77-.04-1.15-.12-1.11-.24-27.38-6.16-43.79-32.31-5.04-8.11-9.4-16.38-13.61-24.39-15.18-28.81-25.6-46.22-47.3-41.96-2.96.59-5.82-1.34-6.41-4.29-.58-2.96,1.34-5.82,4.29-6.41,30.78-6.08,44.52,19.99,59.06,47.58,4.13,7.84,8.4,15.94,13.22,23.7,13.87,22.11,36.62,27.38,36.85,27.43,2.93.65,4.8,3.55,4.15,6.49-.56,2.55-2.81,4.29-5.31,4.29Z"/>
      <path d="m570.71,528.65c-.32,0-.64-.03-.96-.09-18.26-3.25-32.13-12.17-40.11-25.8-9.68-16.53-9.98-39.09-.87-65.25,3.51-10.06,7.08-19.08,10.53-27.79,13.08-33.01,24.38-61.51,20.54-122.97-2.8-44.68,2.12-69.53,15.95-80.57,12.35-9.87,29.42-6.58,42.91-2.62,2.89.85,4.55,3.88,3.7,6.77-.85,2.89-3.88,4.54-6.77,3.7-16.28-4.78-26.47-4.57-33.04.68-10.47,8.36-14.35,31.7-11.87,71.37,4,63.89-7.72,93.45-21.28,127.67-3.41,8.61-6.94,17.51-10.37,27.36-8.03,23.04-8.04,42.46-.02,56.15,6.31,10.78,17.59,17.9,32.61,20.57,2.96.53,4.94,3.36,4.41,6.32-.47,2.64-2.77,4.5-5.36,4.5Z"/>
      <path d="m484.58,486.82c-1.71,0-3.39-.8-4.45-2.3-31.96-45.04-7.72-87.19,11.75-121.07,7.06-12.29,13.74-23.89,16.34-33.56,7.26-26.04,9.98-47.4,8.56-67.25-.21-3,2.05-5.61,5.05-5.83,2.96-.25,5.61,2.05,5.83,5.05,1.51,21.14-1.33,43.67-8.92,70.91-2.95,10.99-9.97,23.2-17.4,36.12-18.86,32.8-40.23,69.98-12.32,109.32,1.74,2.46,1.16,5.86-1.29,7.6-.96.68-2.06,1.01-3.15,1.01Z"/>
      <path d="m883.09,506.94c-.57,0-1.15-.09-1.72-.28-2.86-.95-4.4-4.04-3.45-6.9,1.99-5.97,47.55-147.37-57.39-246.98-13.28-12.61-25.63-33.32-38.7-55.25-28.27-47.44-60.3-101.2-112.62-94.72-2.97.36-5.71-1.75-6.08-4.74-.37-2.99,1.75-5.71,4.74-6.08,59.36-7.35,94.83,52.14,123.33,99.96,12.67,21.27,24.64,41.35,36.84,52.93,109.92,104.33,62.31,252.1,60.23,258.34-.76,2.28-2.89,3.73-5.17,3.73Z"/>
      <path d="m634.1,177.46s-.08,0-.12,0c-3.01-.07-5.4-2.56-5.33-5.57.57-25.9,20.37-41.76,21.22-42.43,2.37-1.86,5.8-1.45,7.66.92,1.86,2.36,1.45,5.78-.9,7.65h0c-.17.13-16.62,13.46-17.07,34.1-.07,2.97-2.49,5.33-5.45,5.33Z"/>
      <path d="m795.37,392.63c-1.91,0-3.76-1-4.76-2.79-1.47-2.63-.54-5.95,2.09-7.42,18.34-10.28,26.83-24.03,26.72-43.26-.2-13.74-6.25-25.02-15.8-29.38-9.05-4.13-20.03-1.35-30.93,7.83-2.3,1.94-5.74,1.65-7.68-.66-1.94-2.3-1.65-5.74.66-7.68,14.09-11.87,29.58-15.31,42.48-9.41,13.42,6.12,21.92,21.14,22.18,39.19.13,23.34-10.43,40.62-32.29,52.88-.85.47-1.76.7-2.66.7Z"/>
      <path d="m794.12,352.95c-.36,0-.73-.04-1.1-.11-2.94-.6-4.84-3.45-4.25-6.4.07-.36,1.84-8.94,8.19-15.8,2.04-2.21,5.5-2.34,7.71-.3,2.21,2.04,2.35,5.5.3,7.71-4.2,4.55-5.49,10.5-5.5,10.56-.54,2.57-2.81,4.35-5.34,4.35Z"/>
      <path class="cls-1" d="m447.11,620.78l-4.76,30.72s-45.61,10.5-55.49,14.79c-9.88,4.29-13.65,22.08-5.89,27.5,7.76,5.42,71.74.3,78.66-2.89,14.53-6.69,39.94-45.14,40.5-55.57,1.29-24.04-23.4-36.8-38.5-40.15-15.1-3.35-139.21.63-162.3,11.71-32.66,15.66-47.71,59.93-47.71,59.93-1.69,7.81-10.93,41.89,18.81,87.06,29.74,45.17,89.78,80.1,110.71,92.22,20.93,12.12,64.31,25.62,85,33.5,20.69,7.88,79.27,73.24,79.27,73.24,0,0,19.84-25.63.45-57.54-17.46-28.74-58.39-52.59-62.82-55.53-4.43-2.95,79.88-37.04,79.88-37.04l-5.85-56.37-21.86-48.16s-.92-37.89-11.78-48.84c-10.86-10.95-76.31-28.56-76.31-28.56Z"/>
      <path class="cls-1" d="m553.47,736.08s76.62,20.73,110.47,16.66c33.85-4.06,118.67-29.73,118.67-29.73,0,0,14.42,19.48-11.57,44.67-21.09,20.43-79.81,34.1-113.04,39.72-42.88,7.26-114.55-3.06-114.55-3.06l10.02-68.27Z"/>
      <path d="m451.8,1293.83c-.13,0-.27,0-.4-.01-3-.22-5.26-2.83-5.04-5.83,4.68-64.23-8.69-153.61-8.83-154.51-.45-2.98,1.6-5.76,4.57-6.21,2.96-.45,5.76,1.59,6.21,4.58.14.91,13.7,91.48,8.93,156.93-.21,2.87-2.6,5.06-5.43,5.06Z"/>
      <path class="cls-5" d="m1387.73,942.33l-294.13,16.77c-23.54,1.34-43.72-16.66-45.06-40.2l-40.65-713.03c-1.34-23.54,16.66-43.72,40.2-45.06l294.13-16.77c23.54-1.34,43.72,16.66,45.06,40.2l40.65,713.03c1.34,23.54-16.66,43.72-40.2,45.06Z"/>
      <path d="m914.79,1330.63c-2.6,0-4.91-1.87-5.37-4.52-.51-2.97,1.47-5.79,4.44-6.31,6.25-1.1,14.13-4.32,14.91-6.83.2-.64-.55-2.22-2.67-4.3-8.45-8.29-41.61-9.79-73.68-11.23-19.32-.87-39.3-1.78-56.96-4.12-98.5-13.1-168.12-59.08-236.61-109.08-60.51-44.19-198.26-80.2-238.08-40.54-13.21,13.17-17.73,26.78-13.06,39.37,7,18.87,33.56,34.15,63.16,36.33,51.24,3.77,74.36,43.96,75.32,45.67,1.47,2.63.54,5.95-2.09,7.43-2.63,1.47-5.95.54-7.42-2.08-.36-.64-21.53-36.81-66.61-40.13-34.19-2.52-64.04-20.38-72.59-43.42-4.37-11.78-5.21-30.16,15.59-50.88,44.65-44.48,188.77-6.87,252.21,39.45,67.3,49.15,135.66,94.32,231.61,107.08,17.19,2.29,36.93,3.18,56.02,4.04,37.24,1.68,69.41,3.13,80.83,14.35,6.46,6.34,6.52,11.84,5.44,15.32-3.22,10.33-20.11,13.75-23.46,14.33-.32.05-.63.08-.94.08Z"/>
      <path d="m484.07,750.1c-34.1,0-87.23-4.38-95.03-5.04-1.74-.15-3.31-1.12-4.21-2.62-.36-.6-8.75-14.76-3.91-29.56,3.1-9.48,10.7-16.82,22.6-21.8,2.78-1.17,5.97.14,7.13,2.92,1.16,2.78-.14,5.97-2.92,7.13-8.85,3.71-14.38,8.79-16.45,15.13-2.32,7.12.12,14.51,1.72,18.18,40.55,3.35,102.17,6.84,113.81,3.3,12.37-3.75,25.14-58.41,23.52-67.37-7.33-24.61-31.02-25.78-31.26-25.79-3.01-.11-5.36-2.64-5.25-5.65.11-3.01,2.65-5.32,5.65-5.25,10.95.41,33.69,7.99,41.34,33.74,2.93,9.85-9.77,74.36-30.85,80.76-4.57,1.39-14.1,1.91-25.92,1.91Z"/>
      <path d="m505.68,804.01c-30.65,0-101.72-14.9-110.7-16.81-1.84-.39-3.34-1.7-3.99-3.46-.25-.69-6.08-16.99.78-31.12,3.77-7.76,10.47-13.26,19.91-16.34,2.86-.94,5.94.63,6.88,3.49.94,2.86-.63,5.94-3.49,6.88-6.6,2.16-11,5.65-13.46,10.69-3.47,7.1-2.19,15.58-1.16,19.88,39.11,8.2,99.08,18.63,112.46,15.36,15.6-3.8,40.28-14.24,41.94-21.3,4.15-17.72-18.03-60-26.92-74.79-1.55-2.58-.72-5.93,1.86-7.48,2.58-1.55,5.93-.72,7.48,1.86,3.51,5.83,34.1,57.72,28.19,82.91-4.24,18.06-49.52,29.29-49.97,29.41-2.4.58-5.75.85-9.81.85Z"/>
      <path d="m485.42,840.28c-2.06,0-4.03-1.17-4.95-3.16-1.26-2.73-.07-5.97,2.66-7.24,1.68-.78,41.67-19.22,75.91-28.71,2.9-.8,5.91.9,6.71,3.8.8,2.9-.9,5.91-3.8,6.71-33.36,9.25-73.83,27.91-74.24,28.09-.74.35-1.52.51-2.29.51Z"/>
      <path d="m620.23,815.47c-37.24,0-75.38-5.4-77.55-5.72-2.98-.43-5.05-3.19-4.62-6.17.43-2.98,3.18-5.06,6.17-4.62.71.1,71.33,10.1,112.86,3.08,41.39-7,92.06-20.73,110.15-38.26,16.32-15.81,14.7-28.48,12.59-34.22-17.96,5.34-85.33,25.03-115.24,28.62-34.52,4.13-109.38-15.96-112.54-16.81-2.91-.79-4.63-3.78-3.84-6.69.79-2.91,3.78-4.63,6.69-3.84.76.21,75.99,20.41,108.4,16.51,32.99-3.96,116.89-29.28,117.74-29.53,2.2-.67,4.59.12,5.96,1.98.17.23,16.93,23.64-12.16,51.83-25.03,24.25-95.06,37.65-115.92,41.18-11.57,1.96-25.07,2.68-38.69,2.68Z"/>
      <path d="m300.13,1173.86c-.42,0-.84-.05-1.26-.15-2.93-.69-4.74-3.63-4.05-6.56,27.34-115.31,124.47-302.84,125.45-304.72,1.39-2.67,4.68-3.71,7.35-2.32,2.67,1.39,3.71,4.68,2.32,7.35-.97,1.87-97.48,188.22-124.51,302.2-.59,2.51-2.83,4.2-5.3,4.2Z"/>
      <path d="m934.23,1317.45c-.32,0-.65-.03-.98-.09-2.96-.54-4.93-3.38-4.4-6.34,31.32-173.07,29.58-303.5,23.04-418.67-.17-3.01,2.13-5.58,5.13-5.75,2.98-.17,5.58,2.13,5.75,5.13,6.58,115.84,8.33,247.04-23.19,421.23-.48,2.64-2.78,4.48-5.36,4.48Z"/>
      <path class="cls-3" d="m598.31,545.05s-87.48-39.75-119.33-37.93c-31.85,1.82-142.83-51.6-182.83-11.95-22.91,22.71-1.9,81.48-1.9,81.48,0,0,40.27-58.32,70.82-60.06,30.55-1.74,65.61,52.29,65.61,52.29l20.63,22.88,45.12,22.3,9.78,22.12,123.83-.22-29.45-27.84-12.34-39.15,10.04-23.92Z"/>
      <path d="m1082.67,987.85c-15.58,0-30.41-5.64-42.13-16.09-12.64-11.27-20.13-26.79-21.09-43.7l-41.5-727.98c-1.99-34.9,24.79-64.92,59.69-66.91l308.76-17.6c36.54-2.08,68.04,25.98,70.13,62.56l41.33,724.94c.96,16.91-4.71,33.18-15.99,45.82-11.27,12.64-26.79,20.13-43.7,21.09l-311.81,17.78c-1.23.07-2.46.1-3.69.1ZM1350.22,126.36c-1.06,0-2.12.03-3.2.09l-308.76,17.6c-28.9,1.65-51.07,26.5-49.42,55.4l41.51,727.98c.8,14,7,26.85,17.46,36.18,10.46,9.33,23.91,14.06,37.93,13.24l311.81-17.78h0c14-.8,26.85-7,36.19-17.46,9.33-10.46,14.03-23.94,13.24-37.93l-41.33-724.94c-1.68-29.51-26.23-52.38-55.42-52.38Z"/>
      <path d="m1099.75,964.11c-30.12,0-55.44-23.6-57.18-54.04l-39.61-694.76c-1.8-31.54,22.41-58.67,53.95-60.47l275.86-15.73c15.25-.87,29.98,4.26,41.41,14.45,11.42,10.19,18.19,24.22,19.06,39.5l39.61,694.76c1.8,31.55-22.4,58.67-53.95,60.47l-275.86,15.73c-1.1.06-2.21.09-3.29.09Zm236.34-814.19c-.9,0-1.8.03-2.7.08l-275.86,15.73c-25.54,1.46-45.14,23.42-43.68,48.96l39.61,694.76c1.46,25.54,23.36,45.12,48.96,43.68l275.86-15.73c25.54-1.46,45.14-23.42,43.68-48.96l-39.61-694.76c-.71-12.37-6.19-23.73-15.43-31.98-8.57-7.65-19.43-11.78-30.82-11.78Z"/>
      <path class="cls-1" d="m1481.39,784.58s59.72,5.28,69.58,66.19c3.06,18.9-46.02,127.25-62.1,157.99-16.08,30.74-51.1,68.95-67.91,78.43-16.81,9.48-39.94-31.12-37.13-57.56,4-37.64,45.39-83.5,43.5-79.69l20.49-28.59,40.13-22.51-6.57-114.26Z"/>
      <path class="cls-1" d="m1393.93,562.54c-10.67,28.94,20.09,50.75,45.83,37.86,25.74-12.89,48.82-34.65,68.7-65.4,16.64-25.74-22.06-69.34-49.86-57.1-21.01,9.25-55.45,59.62-64.67,84.64Z"/>
      <path class="cls-1" d="m1449.2,644.6s-41.27,69.61-38.63,125.76c2.37,50.46,38.21,53.74,46.18,53.29,7.96-.46,78.39-138.39,76.28-175.43-2.11-37.04-63.93-66.79-63.93-66.79l-19.9,63.17Z"/>
      <path d="m1455.63,829.13c-4.78,0-19.38-1-31.91-12.29-11.38-10.26-17.64-25.81-18.6-46.22-2.68-57.13,37.67-125.9,39.39-128.8,1.53-2.59,4.87-3.45,7.47-1.91,2.59,1.54,3.45,4.88,1.91,7.47-.4.68-40.41,68.89-37.88,122.73.82,17.4,5.87,30.39,15,38.63,9.34,8.41,20.26,9.41,24.05,9.48,11.97-12.51,74.44-135.87,72.51-169.69-1.9-33.39-60.26-61.9-60.85-62.19-2.71-1.31-3.85-4.57-2.54-7.28,1.3-2.71,4.57-3.86,7.28-2.55,2.64,1.27,64.74,31.6,67,71.39,1.36,23.8-23.93,80.7-34.87,104.06-8.8,18.79-18.47,37.74-26.54,51.98-14.06,24.81-17.08,24.98-20.01,25.15-.24.01-.73.04-1.43.04Z"/>
      <path d="m1423.8,609.68c-9.43,0-18.64-3.35-25.89-9.84-11.08-9.92-14.48-24.57-9.09-39.19h0c9.61-26.08,45.19-77.89,67.6-87.75,17.33-7.63,36.87,2.76,48.53,16.44,13.66,16.02,16.84,35.1,8.11,48.61-20.2,31.25-44.03,53.9-70.84,67.32-5.91,2.96-12.2,4.4-18.4,4.4Zm-24.75-45.26c-3.84,10.42-1.6,20.37,6.13,27.29,8.53,7.64,21.45,9.16,32.14,3.81,25.04-12.54,47.44-33.9,66.56-63.49,7.36-11.38.69-26.3-7.25-35.62-9.03-10.6-23.61-18.91-35.84-13.54-19.14,8.42-52.97,57.71-61.75,81.54h0Z"/>
      <path d="m1377.54,1175.77c-7.05,0-13.69-2.79-19.29-8.13-9-8.58-14.28-22.81-14.13-38.08.48-49.79,36.48-82.51,38.01-83.88,2.25-2,5.7-1.81,7.7.43,2.01,2.25,1.81,5.69-.43,7.7h0c-.34.3-33.94,30.99-34.37,75.86-.12,12.12,4,23.65,10.75,30.08,3.82,3.64,8.09,5.35,12.69,5.09,12.08-.69,76.41-71.81,107.83-122.84,18.57-30.16,33.12-82.58,31.57-102.73-.23-3,2.01-5.62,5.02-5.85,2.97-.25,5.62,2.01,5.85,5.02,1.88,24.4-14.86,79.56-33.16,109.29-25.5,41.42-95.52,126.81-116.49,128.01-.51.03-1.03.05-1.54.05Z"/>
      <path d="m1222.87,1134.27c-7.68,0-15.45-.26-23.32-.79-58.41-3.97-111.44-22.21-138.37-47.62-38.67-36.48-49.73-86.83-62.54-145.14-5.16-23.47-10.49-47.74-18.01-73.23-2.09-7.09-5.44-17.61-9.31-29.79-10.98-34.52-26.01-81.81-33.08-114.56-4.87-22.56-12.35-42.23-18.37-58.04-8.58-22.55-14.79-38.85-8.69-50.27,4.3-8.07,13.61-13.89,25.53-15.99,18.34-3.22,38.09,2.78,52.81,16.04,16.57,14.93,24.48,35.3,24.8,36.16,1.08,2.81-.33,5.96-3.15,7.04-2.81,1.08-5.96-.33-7.04-3.15-.16-.42-7.44-18.9-21.92-31.95-12.24-11.04-28.56-16.05-43.62-13.4-8.47,1.48-15.12,5.36-17.79,10.38-3.76,7.05,1.99,22.14,9.26,41.26,6.15,16.15,13.8,36.25,18.84,59.61,6.96,32.25,21.9,79.24,32.81,113.56,3.89,12.24,7.25,22.81,9.38,30,7.64,25.86,13.01,50.32,18.21,73.98,12.42,56.54,23.15,105.38,59.37,139.54,49.01,46.23,202.7,69.86,285.46,9.62,2.43-1.77,5.84-1.24,7.62,1.2,1.77,2.43,1.24,5.84-1.2,7.62-33.65,24.5-82.93,37.92-137.67,37.92Z"/>
      <path d="m598.31,550.51c-.75,0-1.52-.16-2.25-.49-.86-.39-86.63-39.21-116.77-37.45-10.74.61-26.65-4.35-46.76-10.64-41.58-13-98.52-30.81-132.91-2.53-2.32,1.91-5.76,1.58-7.68-.75-1.91-2.33-1.58-5.76.75-7.68,38.94-32.01,99.14-13.19,143.09.55,18.3,5.72,34.08,10.67,42.89,10.16,32.82-1.8,118.27,36.77,121.9,38.41,2.74,1.25,3.95,4.48,2.71,7.22-.91,2.01-2.89,3.2-4.97,3.2Z"/>
      <path d="m257.64,658.38c-.41,0-.83-.05-1.25-.15-2.93-.69-4.75-3.62-4.06-6.56,13.79-58.63,75.56-123.09,110.37-139.99,2.72-1.31,5.97-.18,7.29,2.52,1.32,2.71.19,5.97-2.52,7.29-33.33,16.18-91.9,79.03-104.52,132.68-.59,2.51-2.83,4.21-5.3,4.21Z"/>
      <path d="m446.49,596.46c-1.82,0-3.6-.91-4.63-2.57-32.16-51.71-91.89-92.88-125.38-97.5-5.38-.74-12.63-.86-16.63,2.81-9.51,8.69-5.39,52.3.58,80.49.62,2.95-1.26,5.84-4.2,6.46-2.94.62-5.84-1.26-6.46-4.2-2.62-12.35-14.79-74.79,2.73-90.8,5.72-5.23,14.29-7.1,25.48-5.56,36.64,5.05,98.89,47.46,133.16,102.54,1.59,2.56.81,5.92-1.75,7.51-.9.56-1.89.82-2.88.82Z"/>
      <path d="m526.46,657.79c-2.19,0-4.25-1.33-5.09-3.49-1.08-2.81.31-5.97,3.12-7.05,9.27-3.58,18.17-18.31,20.82-23.68,1.33-2.7,4.6-3.82,7.3-2.48,2.7,1.33,3.82,4.59,2.49,7.29-1.16,2.37-11.78,23.29-26.68,29.05-.65.25-1.31.37-1.96.37Z"/>
      <path d="m707.2,689.15c-22.98,0-108.57-81.01-109.41-81.84-19.32-19.23-14.66-60.61-14.45-62.36.36-2.99,3.05-5.1,6.05-4.77,2.99.35,5.13,3.06,4.78,6.05-.04.38-4.24,37.86,11.32,53.35,26.27,26.14,89.37,78.67,101.39,78.67.07,0,.15,0,.22,0,11.45-.65,64-67.15,73.05-89.45,7.82-19.28,5.5-53.24,5.47-53.58-.21-3,2.04-5.61,5.05-5.83,2.96-.2,5.61,2.04,5.83,5.05.11,1.49,2.54,36.82-6.24,58.47-7.43,18.3-62.34,95.09-82.53,96.24-.17,0-.34.01-.52.01Z"/>
      <path d="m1003.64,560.41c-1.46,0-2.92-.58-3.99-1.74-.44-.47-44.39-47.39-75.35-51.34-44.08-5.61-145.58,38.8-146.6,39.25-2.75,1.21-5.98-.03-7.19-2.79-1.21-2.75.04-5.97,2.79-7.19,4.28-1.89,105.26-46.1,152.38-40.09,34.87,4.45,80.05,52.68,81.95,54.73,2.05,2.21,1.92,5.65-.28,7.71-1.05.98-2.38,1.46-3.71,1.46Z"/>
      <path d="m1003.98,945c-1.38,0-2.76-.52-3.82-1.56-10.22-10.03-100.15-98.73-108.82-123.73-8.62-24.85-17.74-123.9-18.12-128.1-.27-3,1.93-5.65,4.93-5.93,3.02-.28,5.65,1.93,5.93,4.93.09,1.02,9.38,101.92,17.57,125.52,6.63,19.12,78.87,92.76,106.15,119.52,2.15,2.11,2.18,5.56.07,7.71-1.07,1.09-2.48,1.64-3.89,1.64Z"/>
      <path d="m864.88,723.78c-2.58,0-4.87-1.84-5.36-4.46-6.51-35.24-17.04-61.91-17.15-62.18-1.11-2.8.25-5.97,3.05-7.08,2.8-1.12,5.97.24,7.09,3.05.45,1.12,11.02,27.87,17.74,64.24.55,2.96-1.41,5.81-4.37,6.35-.33.06-.67.09-.99.09Z"/>
      <path d="m112.42,995.83c-.57,0-1.16-.09-1.73-.28-54.07-18.11-88.8-53.42-103.22-104.93-18.45-65.91.76-142.69,20.12-195.49,22.92-62.5,59.14-126.47,96.88-171.12,15.65-18.52,35.47-44.48,58.42-74.54,69.15-90.59,163.85-214.65,260.95-289.7,52.52-40.6,149.6-102.38,209.66-60.13,2.46,1.73,3.05,5.14,1.32,7.6-1.73,2.46-5.13,3.05-7.6,1.32-54.34-38.23-146.58,21.08-196.72,59.84-95.96,74.17-190.17,197.58-258.95,287.68-23.04,30.18-42.93,56.24-58.76,74.96-65.03,76.94-146.5,243.49-114.83,356.63,13.38,47.82,45.74,80.63,96.18,97.53,2.86.96,4.4,4.05,3.44,6.9-.76,2.28-2.89,3.72-5.17,3.72Z"/>
      <path d="m161.25,993.04c-.85,0-1.72-.2-2.53-.63-117.5-61.63-88.74-174.42-79.29-211.48,1.04-4.08,2.22-8.71,2.24-9.9-.17-3.01,2.13-5.54,5.14-5.71,3.01-.19,5.58,2.17,5.76,5.18.14,2.41-.64,5.57-2.57,13.12-8.92,35-36.07,141.5,73.79,199.13,2.67,1.4,3.69,4.69,2.3,7.36-.98,1.86-2.87,2.92-4.83,2.92Z"/>
      <path d="m232.12,965.5c-.41,0-.83-.05-1.25-.15-95.55-22.4-71.46-136.41-71.2-137.56.65-2.94,3.55-4.81,6.5-4.14,2.94.65,4.8,3.56,4.15,6.5-.94,4.26-21.99,104.64,63.04,124.59,2.93.69,4.75,3.62,4.06,6.55-.59,2.51-2.83,4.21-5.3,4.21Z"/>
      <path d="m1415.72,1094.04c-3.68,0-7.5-1.24-11.24-3.7-15.66-10.29-28.32-40.08-26.07-61.29,1.74-16.37,14.97-41.36,39.31-74.27,7.93-10.72,34.88-45.08,39.52-46.51,2.08-.64,4.38.02,5.8,1.68,1.41,1.66,1.66,4.13.69,6.08-.49.99-1.25,1.77-2.14,2.29-8.49,8.34-68.91,79.7-72.33,111.88-1.95,18.33,10.24,43.8,21.21,51.02,4.6,3.03,7.02,1.66,7.82,1.21,15.14-8.53,65.91-76.49,81.84-106.95,17.13-32.74,48.1-107.56,45.47-123.85-9.05-55.86-62.42-61.43-64.69-61.64-2.99-.28-5.21-2.93-4.94-5.92.27-3,2.91-5.21,5.91-4.94.64.06,64.06,6.4,74.48,70.75,3.57,22.01-32.33,103.42-46.57,130.65-16.2,30.97-67.55,100.91-86.14,111.4-2.49,1.4-5.16,2.1-7.92,2.1Z"/>
      <path d="m320.86,933.79c-.36,0-.72-.04-1.09-.11-74.41-15.05-77.76-77.91-77.79-78.54-.12-3.01,2.22-5.55,5.23-5.67,2.93-.16,5.54,2.22,5.66,5.22.11,2.29,3.28,54.99,69.06,68.29,2.95.6,4.86,3.47,4.26,6.42-.52,2.59-2.8,4.37-5.34,4.37Z"/>
      <path d="m401.99,916.75c-.19,0-.38,0-.57-.03-31.27-3.28-54.15-13.7-68.02-30.98-15.98-19.92-13.72-41.49-13.62-42.4.34-2.99,3.08-5.13,6.04-4.8,2.99.34,5.13,3.04,4.8,6.02-.03.27-1.73,18.27,11.42,34.52,12,14.83,32.36,23.84,60.51,26.79,3,.31,5.17,3,4.86,5.99-.29,2.8-2.66,4.88-5.42,4.88Z"/>
      <path d="m652.17,1304.77c-.49,0-.99-.07-1.48-.21-2.9-.81-4.59-3.82-3.77-6.73,9.18-32.65,4.05-54.92,4-55.14-.7-2.92,1.1-5.87,4.02-6.58,2.93-.71,5.86,1.08,6.58,4,.25,1.01,5.92,25.07-4.1,60.68-.68,2.4-2.87,3.98-5.25,3.98Z"/>
      <path class="cls-3" d="m1084.94,442.07c-1.06,0-2.12-.31-3.07-.95-2.49-1.7-3.13-5.09-1.44-7.58l138.92-203.85c1.7-2.49,5.08-3.13,7.58-1.44,2.49,1.7,3.13,5.09,1.44,7.58l-138.92,203.85c-1.05,1.55-2.77,2.38-4.51,2.38Z"/>
      <path class="cls-3" d="m1172,648.78c-1.06,0-2.12-.31-3.06-.95-2.49-1.7-3.13-5.09-1.44-7.58l138.92-203.85c1.69-2.49,5.08-3.13,7.58-1.44,2.49,1.7,3.13,5.09,1.44,7.58l-138.92,203.85c-1.05,1.55-2.77,2.38-4.51,2.38Z"/>
      <path class="cls-3" d="m1097.75,592.19c-1.06,0-2.12-.31-3.07-.95-2.49-1.7-3.13-5.09-1.44-7.58l216.49-317.66c1.7-2.49,5.08-3.13,7.58-1.44,2.49,1.7,3.13,5.09,1.44,7.58l-216.49,317.66c-1.05,1.55-2.77,2.38-4.51,2.38Z"/>
      <path class="cls-3" d="m1169.08,846.63c-1.12,0-2.25-.35-3.23-1.06-2.43-1.79-2.95-5.2-1.16-7.62l116.65-158.5c1.79-2.43,5.2-2.95,7.62-1.16,2.43,1.79,2.95,5.2,1.16,7.62l-116.65,158.5c-1.07,1.45-2.72,2.22-4.4,2.22Z"/>
      <path d="m545.4,958.29c-1.55,0-3.02-.66-4.06-1.81-16.05-17.91-61.2-65.71-77.15-71.78-5.4-2.06-12.58-4.58-20.19-7.25-22.17-7.78-49.75-17.46-65.6-26.63-20.27-11.74-81.93-47.46-112.53-93.94-19.82-30.1-26.48-60.46-19.8-90.23l.22-.98c.04-.2.1-.41.17-.6.65-1.9,16.18-46.64,50.52-63.1,25.5-12.22,150.76-15.46,165.84-12.11,15.46,3.43,44.3,17.4,42.77,45.77-.64,11.93-27.19,52.64-43.67,60.23-6.84,3.15-73.55,9.74-84.06,2.41-4.77-3.33-7.09-9.43-6.36-16.75.75-7.54,5.12-16.71,13.19-20.22,8.65-3.76,41.73-11.66,52.84-14.27l4.2-27.08c.46-2.98,3.25-5.03,6.22-4.55,2.98.46,5.01,3.25,4.55,6.22l-4.76,30.72c-.34,2.2-1.99,3.98-4.16,4.48-12.55,2.89-46.82,11.13-54.54,14.48-3.37,1.46-6.18,6.22-6.69,11.3-.31,3.13.37,5.77,1.75,6.72,7.54,3.82,66.15-.45,73.29-3.38,12.41-5.71,36.86-42.5,37.31-50.89,1.13-21.07-21.9-31.8-34.24-34.53-15.29-3.4-137.1.91-158.77,11.3-28.92,13.86-43.54,52.97-44.82,56.52l-.16.71c-6,26.78.14,54.31,18.27,81.85,29.18,44.33,89.17,79.08,108.89,90.5,14.95,8.66,42.01,18.15,63.74,25.78,7.68,2.69,14.93,5.24,20.46,7.34,18.39,7,61.13,52.5,76.4,69.19,4.06-8.52,8.87-25.57-3.29-45.57-10.1-16.63-29.96-34.28-59.02-52.46-1-.63-1.73-1.08-2.15-1.36-4.58-3.05-25.06-31.13-36.86-47.61-1.75-2.45-1.19-5.85,1.26-7.61,2.45-1.75,5.86-1.19,7.61,1.26,14.45,20.18,31.19,42.52,34.19,44.99.21.13.86.54,1.74,1.09,30.51,19.09,51.56,37.95,62.56,56.04,21.1,34.72.11,62.55-.79,63.72-.99,1.28-2.5,2.05-4.11,2.11-.07,0-.13,0-.2,0Z"/>
      <path d="m575.17,390.33c-.34,0-.69-.03-1.04-.1-2.95-.57-4.88-3.41-4.32-6.36.12-.66,3.2-16.19,15.55-21.63,8.02-3.53,17.54-1.94,28.3,4.71,2.56,1.58,3.35,4.94,1.77,7.51s-4.95,3.35-7.51,1.77c-7.5-4.64-13.61-5.99-18.13-4.02-5.89,2.57-8.69,10.77-9.27,13.72-.51,2.6-2.8,4.41-5.35,4.41Z"/>
      <path d="m689.5,358.03c-.34,0-.69-.03-1.04-.1-2.95-.57-4.88-3.41-4.32-6.36.12-.66,3.2-16.19,15.55-21.63,8.02-3.53,17.54-1.94,28.3,4.71,2.56,1.58,3.35,4.94,1.77,7.51-1.58,2.56-4.95,3.35-7.51,1.77-7.5-4.64-13.61-5.99-18.13-4.02-5.89,2.57-8.69,10.77-9.27,13.72-.51,2.6-2.8,4.41-5.35,4.41Z"/>
      <g>
        <path d="m724.71,68.54c-.77,0-1.54-.16-2.28-.5-2.73-1.26-3.93-4.5-2.67-7.24l26.59-57.63c1.26-2.74,4.5-3.93,7.24-2.67,2.73,1.26,3.93,4.5,2.67,7.24l-26.59,57.63c-.92,2-2.89,3.17-4.95,3.17Z"/>
        <path d="m765.74,94.49c-1.2,0-2.41-.39-3.42-1.21-2.35-1.89-2.71-5.32-.83-7.67l44.27-54.94c1.89-2.35,5.32-2.72,7.67-.83,2.34,1.89,2.71,5.32.83,7.67l-44.28,54.94c-1.08,1.34-2.66,2.03-4.25,2.03Z"/>
        <path d="m799.69,126.83c-1.56,0-3.1-.66-4.18-1.95-1.93-2.31-1.63-5.75.67-7.68l46.04-38.63c2.31-1.94,5.75-1.63,7.68.67,1.93,2.31,1.63,5.75-.67,7.68l-46.04,38.63c-1.02.86-2.27,1.28-3.5,1.28Z"/>
      </g>
    </g>
  </g>
</svg>